<?xml version="1.0" encoding="utf-8"?>
<svg version="1.1" xmlns:xlink="http://www.w3.org/1999/xlink" width="194px" height="434px" xmlns="http://www.w3.org/2000/svg">
  <g transform="matrix(1 0 0 1 -948 -173 )">
    <path d="M 949 177  A 3 3 0 0 1 952 174 L 1138 174  A 3 3 0 0 1 1141 177 L 1141 603  A 3 3 0 0 1 1138 606 L 952 606  A 3 3 0 0 1 949 603 L 949 177  Z " fill-rule="nonzero" fill="#ff3399" stroke="none" fill-opacity="0.0980392156862745" />
    <path d="M 948.5 177  A 3.5 3.5 0 0 1 952 173.5 L 1138 173.5  A 3.5 3.5 0 0 1 1141.5 177 L 1141.5 603  A 3.5 3.5 0 0 1 1138 606.5 L 952 606.5  A 3.5 3.5 0 0 1 948.5 603 L 948.5 177  Z " stroke-width="1" stroke-dasharray="9,4" stroke="#ff3399" fill="none" stroke-dashoffset="0.5" />
  </g>
</svg>