<?xml version="1.0" encoding="utf-8"?>
<svg version="1.1" xmlns:xlink="http://www.w3.org/1999/xlink" width="137px" height="349px" xmlns="http://www.w3.org/2000/svg">
  <g transform="matrix(1 0 0 1 -999 -192 )">
    <path d="M 1000 196  A 3 3 0 0 1 1003 193 L 1132 193  A 3 3 0 0 1 1135 196 L 1135 537  A 3 3 0 0 1 1132 540 L 1003 540  A 3 3 0 0 1 1000 537 L 1000 196  Z " fill-rule="nonzero" fill="#ffffff" stroke="none" fill-opacity="0" />
    <path d="M 999.5 196  A 3.5 3.5 0 0 1 1003 192.5 L 1132 192.5  A 3.5 3.5 0 0 1 1135.5 196 L 1135.5 537  A 3.5 3.5 0 0 1 1132 540.5 L 1003 540.5  A 3.5 3.5 0 0 1 999.5 537 L 999.5 196  Z " stroke-width="1" stroke-dasharray="9,4" stroke="#ff3399" fill="none" stroke-dashoffset="0.5" />
  </g>
</svg>