<?xml version="1.0" encoding="utf-8"?>
<svg version="1.1" xmlns:xlink="http://www.w3.org/1999/xlink" width="215px" height="47px" xmlns="http://www.w3.org/2000/svg">
  <g transform="matrix(1 0 0 1 -882 -72 )">
    <path d="M 883 76  A 3 3 0 0 1 886 73 L 1093 73  A 3 3 0 0 1 1096 76 L 1096 115  A 3 3 0 0 1 1093 118 L 886 118  A 3 3 0 0 1 883 115 L 883 76  Z " fill-rule="nonzero" fill="#ffffff" stroke="none" fill-opacity="0" />
    <path d="M 882.5 76  A 3.5 3.5 0 0 1 886 72.5 L 1093 72.5  A 3.5 3.5 0 0 1 1096.5 76 L 1096.5 115  A 3.5 3.5 0 0 1 1093 118.5 L 886 118.5  A 3.5 3.5 0 0 1 882.5 115 L 882.5 76  Z " stroke-width="1" stroke-dasharray="9,4" stroke="#ff3399" fill="none" stroke-dashoffset="0.5" />
  </g>
</svg>