<?xml version="1.0" encoding="utf-8"?>
<svg version="1.1" xmlns:xlink="http://www.w3.org/1999/xlink" width="298px" height="33px" xmlns="http://www.w3.org/2000/svg">
  <g transform="matrix(1 0 0 1 -521 -261 )">
    <path d="M 522 265  A 3 3 0 0 1 525 262 L 815 262  A 3 3 0 0 1 818 265 L 818 290  A 3 3 0 0 1 815 293 L 525 293  A 3 3 0 0 1 522 290 L 522 265  Z " fill-rule="nonzero" fill="#ff3399" stroke="none" fill-opacity="0.0980392156862745" />
    <path d="M 521.5 265  A 3.5 3.5 0 0 1 525 261.5 L 815 261.5  A 3.5 3.5 0 0 1 818.5 265 L 818.5 290  A 3.5 3.5 0 0 1 815 293.5 L 525 293.5  A 3.5 3.5 0 0 1 521.5 290 L 521.5 265  Z " stroke-width="1" stroke-dasharray="9,4" stroke="#ff3399" fill="none" stroke-dashoffset="0.5" />
  </g>
</svg>