<?xml version="1.0" encoding="utf-8"?>
<svg version="1.1" xmlns:xlink="http://www.w3.org/1999/xlink" width="24px" height="27px" xmlns="http://www.w3.org/2000/svg">
  <g transform="matrix(1 0 0 1 -570 -764 )">
    <path d="M 8.19414473684208 26.9072368421052  C 8.09249999999997 26.9521710527343  7.98575657905019 26.9736842106291  7.88042763157898 26.9736842106291  C 7.62 26.9736842106291  7.36812499989719 26.8422368422081  7.22233552641853 26.6092763156867  L 7.19042763157893 26.5582565788445  C 7.15069078957652 26.4947368421052  7.12036184210524 26.4257894734786  7.1003947367393 26.353585526213  L 6.15578947358142 22.938092105366  L 0.830361842208049 4.03398026305513  C 0.815098684416171 3.99970394716286  0.802203947368412 3.96411184200247  0.791973684313348 3.92740131568667  L 0.164638157997501 1.68516447378704  C 0.139605263363478 1.59578947388979  0.130855263157855 1.50266447368426  0.138749999999959 1.41019736842111  L 0.139703947265616 1.39914473684212  C 0.17157894726563 1.02555921062913  0.466052631476146 0.728256578844594  0.839309210526267 0.692796052734366  C 1.21351973684216 0.657138157894792  1.55782894736842 0.893914473787049  1.65947368421052 1.25473684200244  L 2.01667763147611 2.52273026305511  C 3.96717105252878 1.44661184210531  6.43069078926806 0.688684210423503  8.11414473694492 0.688684210423503  C 9.04000000010285 0.688684210423503  10.0006250002056 0.821842105263158  11.0508552631579 1.09578947368425  C 11.989407894634 1.34059210516034  12.9134210526316 1.67549342115547  13.7721381577919 2.00098684200248  C 14.7784868418996 2.382368420847  15.7969078945313 2.57575657894733  16.7991118421053 2.57575657894733  C 20.2907236841078 2.57575657894733  22.5740460527344 0.259539473684185  22.5967105263157 0.236151315789471  C 22.8231578946341 0.00226973684209497  23.1716776316817 -0.0653618422080626  23.469177631579 0.0669407895765062  C 23.7667105263158 0.19921052652137  23.9500000001028 0.503190789473706  23.928092105366 0.828059210526362  L 23.1856249998972 11.8433223685239  C 23.1738815788445 12.0175000001028  23.10375 12.1825986843133  22.9865460527344 12.3119736843133  C 22.8741447369449 12.4361184211555  20.1809539474713 15.351776315995  15.6441447369449 15.3517763156867  C 15.1451973685239 15.3517763156867  14.63625 15.3155592104235  14.1314802631579 15.2441776316817  C 13.678125 15.1794407895765  13.2358223684211 15.1466776316818  12.8159210526316 15.1466776316818  C 11.4987499998972 15.1466776316818  10.1166447369449 15.4684868422081  9.0240131579975 16.029638157792  C 7.82151315789474 16.647171052426  6.99411184231087 17.5057894736842  6.56144736852389 18.5841118421052  L 7.65026315779198 22.5208881577919  L 8.62680921062906 25.9875  C 8.73144736862662 26.3590131577919  8.5470723685238 26.7509868420025  8.19414473684208 26.9072368421052  Z " fill-rule="nonzero" fill="#5cc870" stroke="none" transform="matrix(1 0 0 1 570 764 )" />
  </g>
</svg>