<?xml version="1.0" encoding="utf-8"?>
<svg version="1.1" xmlns:xlink="http://www.w3.org/1999/xlink" width="179px" height="33px" xmlns="http://www.w3.org/2000/svg">
  <g transform="matrix(1 0 0 1 -880 -367 )">
    <path d="M 881 371  A 3 3 0 0 1 884 368 L 1055 368  A 3 3 0 0 1 1058 371 L 1058 396  A 3 3 0 0 1 1055 399 L 884 399  A 3 3 0 0 1 881 396 L 881 371  Z " fill-rule="nonzero" fill="#ff3399" stroke="none" fill-opacity="0.0980392156862745" />
    <path d="M 880.5 371  A 3.5 3.5 0 0 1 884 367.5 L 1055 367.5  A 3.5 3.5 0 0 1 1058.5 371 L 1058.5 396  A 3.5 3.5 0 0 1 1055 399.5 L 884 399.5  A 3.5 3.5 0 0 1 880.5 396 L 880.5 371  Z " stroke-width="1" stroke-dasharray="9,4" stroke="#ff3399" fill="none" stroke-dashoffset="0.5" />
  </g>
</svg>