<?xml version="1.0" encoding="utf-8"?>
<svg version="1.1" xmlns:xlink="http://www.w3.org/1999/xlink" width="295px" height="542px" xmlns="http://www.w3.org/2000/svg">
  <g transform="matrix(1 0 0 1 -828.5 -239.5 )">
    <path d="M 157.124742870544 1.78477222979065  C 157.124742870544 1.78477222979065  158.324078483246 16.2431420685217  155.225352676078 6.48782781802361  C 151.75567897043 -4.4352933135766  148.95471943429 0.688326962683737  138.158154791855 9.01826983502344  C 132.020359816132 13.7538022199219  110.40065202689 23.9744184151817  110.40065202689 23.9744184151817  C 110.40065202689 23.9744184151817  38.5355326639088 17.893327464563  22.5443926018359 30.5529957566428  C 16.6793456153382 35.1961637283014  15.732177296284 68.783791231375  15.732177296284 68.783791231375  L 10.0417658028777 216.393476608167  L 0.215016132021379 323.507597950343  C 0.215016132021379 323.507597950343  64.9260567306977 326.348073221259  105.884960395898 320.887888182206  C 128.830823550214 317.829001163953  149.53671014815 316.947743062203  171.630010171602 318.321094464337  C 193.723310195054 319.694445866471  227.984323586183 321.582388600788  247.400584468515 312.253923988695  C 287.038550175599 293.210022455093  301.085333149742 248.645973356943  276.945013227226 199.082886949322  C 226.717600520947 95.9597467431044  196.602942670371 97.7877734132088  178.79271839564 146.455523171168  C 142.717538800356 245.033608765955  157.124742870545 535.78477222979  157.124742870545 535.78477222979  " stroke-width="5" stroke="#04d919" fill="none" transform="matrix(1 0 0 1 831 242 )" />
  </g>
</svg>