<?xml version="1.0" encoding="utf-8"?>
<svg version="1.1" xmlns:xlink="http://www.w3.org/1999/xlink" width="19px" height="16px" xmlns="http://www.w3.org/2000/svg">
  <g transform="matrix(1 0 0 1 -492 -239 )">
    <path d="M 18.7649739583333 13.0375  C 18.9216579861111 13.1958333333333  19 13.3833333333333  19 13.6  L 19 15.2  C 19 15.4166666666667  18.9216579861111 15.6041666666667  18.7649739583333 15.7625  C 18.6082899305556 15.9208333333333  18.4227430555556 16  18.2083333333333 16  L 0.791666666666667 16  C 0.577256944444445 16  0.391710069444444 15.9208333333333  0.235026041666667 15.7625  C 0.0783420138888889 15.6041666666667  0 15.4166666666667  0 15.2  L 0 13.6  C 0 13.3833333333333  0.0783420138888889 13.1958333333333  0.235026041666667 13.0375  C 0.391710069444444 12.8791666666667  0.577256944444445 12.8  0.791666666666667 12.8  L 18.2083333333333 12.8  C 18.4227430555556 12.8  18.6082899305556 12.8791666666667  18.7649739583333 13.0375  Z M 18.7649739583333 6.6375  C 18.9216579861111 6.79583333333333  19 6.98333333333333  19 7.2  L 19 8.8  C 19 9.01666666666667  18.9216579861111 9.20416666666667  18.7649739583333 9.3625  C 18.6082899305556 9.52083333333333  18.4227430555556 9.6  18.2083333333333 9.6  L 0.791666666666667 9.6  C 0.577256944444445 9.6  0.391710069444444 9.52083333333333  0.235026041666667 9.3625  C 0.0783420138888889 9.20416666666667  0 9.01666666666667  0 8.8  L 0 7.2  C 0 6.98333333333333  0.0783420138888889 6.79583333333333  0.235026041666667 6.6375  C 0.391710069444444 6.47916666666667  0.577256944444445 6.4  0.791666666666667 6.4  L 18.2083333333333 6.4  C 18.4227430555556 6.4  18.6082899305556 6.47916666666667  18.7649739583333 6.6375  Z M 18.7649739583333 0.237500000000001  C 18.9216579861111 0.395833333333332  19 0.583333333333332  19 0.800000000000001  L 19 2.4  C 19 2.61666666666667  18.9216579861111 2.80416666666667  18.7649739583333 2.9625  C 18.6082899305556 3.12083333333333  18.4227430555556 3.2  18.2083333333333 3.2  L 0.791666666666667 3.2  C 0.577256944444445 3.2  0.391710069444444 3.12083333333333  0.235026041666667 2.9625  C 0.0783420138888889 2.80416666666667  0 2.61666666666667  0 2.4  L 0 0.800000000000001  C 0 0.583333333333332  0.0783420138888889 0.395833333333332  0.235026041666667 0.237500000000001  C 0.391710069444444 0.0791666666666657  0.577256944444445 0  0.791666666666667 0  L 18.2083333333333 0  C 18.4227430555556 0  18.6082899305556 0.0791666666666657  18.7649739583333 0.237500000000001  Z " fill-rule="nonzero" fill="#000000" stroke="none" transform="matrix(1 0 0 1 492 239 )" />
  </g>
</svg>