<?xml version="1.0" encoding="utf-8"?>
<svg version="1.1" xmlns:xlink="http://www.w3.org/1999/xlink" width="16px" height="17px" xmlns="http://www.w3.org/2000/svg">
  <g transform="matrix(1 0 0 1 -280 -198 )">
    <path d="M 15.6467391304348 6.81418485237484  C 15.8822463768116 7.08697047496791  16 7.41613179289688  16 7.80166880616175  L 16 9.19833119383826  C 16 9.58386820710312  15.8822463768116 9.91302952503209  15.6467391304348 10.1858151476252  C 15.411231884058 10.4586007702182  15.1050724637681 10.5949935815148  14.7282608695652 10.5949935815148  L 7.07608695652174 10.5949935815148  L 10.2608695652174 13.8029525032092  C 10.536231884058 14.0648267008986  10.6739130434783 14.3921694480103  10.6739130434783 14.7849807445443  C 10.6739130434783 15.1777920410783  10.536231884058 15.50513478819  10.2608695652174 15.7670089858793  L 9.44565217391304 16.5962772785623  C 9.17753623188406 16.8654257595208  8.85144927536232 17  8.46739130434783 17  C 8.09057971014493 17  7.76086956521739 16.8654257595208  7.47826086956522 16.5962772785623  L 0.402173913043478 9.48202824133505  C 0.134057971014493 9.21287976037655  0 8.88553701326487  0 8.5  C 0 8.12173727000428  0.134057971014493 7.79075738125802  0.402173913043478 7.50706033376123  L 7.47826086956522 0.414634146341464  C 7.7536231884058 0.13821138211382  8.08333333333333 0  8.46739130434783 0  C 8.84420289855072 0  9.17028985507246 0.13821138211382  9.44565217391304 0.414634146341464  L 10.2608695652174 1.22207958921694  C 10.536231884058 1.49850235344459  10.6739130434783 1.82948224219084  10.6739130434783 2.21501925545571  C 10.6739130434783 2.60055626872058  10.536231884058 2.93153615746684  10.2608695652174 3.20795892169448  L 7.07608695652174 6.40500641848524  L 14.7282608695652 6.40500641848524  C 15.1050724637681 6.40500641848524  15.411231884058 6.54139922978177  15.6467391304348 6.81418485237484  Z " fill-rule="nonzero" fill="#5cc870" stroke="none" transform="matrix(1 0 0 1 280 198 )" />
  </g>
</svg>