<?xml version="1.0" encoding="utf-8"?>
<svg version="1.1" xmlns:xlink="http://www.w3.org/1999/xlink" width="300px" height="187px" xmlns="http://www.w3.org/2000/svg">
  <g transform="matrix(1 0 0 1 -1470 -846 )">
    <path d="M 1471 850  A 3 3 0 0 1 1474 847 L 1766 847  A 3 3 0 0 1 1769 850 L 1769 1029  A 3 3 0 0 1 1766 1032 L 1474 1032  A 3 3 0 0 1 1471 1029 L 1471 850  Z " fill-rule="nonzero" fill="#ff3399" stroke="none" fill-opacity="0.0980392156862745" />
    <path d="M 1470.5 850  A 3.5 3.5 0 0 1 1474 846.5 L 1766 846.5  A 3.5 3.5 0 0 1 1769.5 850 L 1769.5 1029  A 3.5 3.5 0 0 1 1766 1032.5 L 1474 1032.5  A 3.5 3.5 0 0 1 1470.5 1029 L 1470.5 850  Z " stroke-width="1" stroke-dasharray="9,4" stroke="#ff3399" fill="none" stroke-dashoffset="0.5" />
  </g>
</svg>