<?xml version="1.0" encoding="utf-8"?>
<svg version="1.1" xmlns:xlink="http://www.w3.org/1999/xlink" width="15px" height="13px" xmlns="http://www.w3.org/2000/svg">
  <g transform="matrix(1 0 0 1 -273 -137 )">
    <path d="M 14.6688179347826 5.21084724005135  C 14.8896059782609 5.41944801026958  15 5.67115960633291  15 5.96598202824133  L 15 7.03401797175867  C 15 7.32884039366709  14.8896059782609 7.58055198973042  14.6688179347826 7.78915275994865  C 14.4480298913043 7.99775353016688  14.1610054347826 8.102053915276  13.8077445652174 8.102053915276  L 6.63383152173913 8.102053915276  L 9.6195652173913 10.5551989730424  C 9.87771739130435 10.7554557124519  10.0067934782609 11.0057766367137  10.0067934782609 11.306161745828  C 10.0067934782609 11.6065468549422  9.87771739130435 11.8568677792041  9.6195652173913 12.0571245186136  L 8.85529891304348 12.691270860077  C 8.6039402173913 12.8970902866923  8.29823369565217 13  7.93817934782609 13  C 7.58491847826087 13  7.2758152173913 12.8970902866923  7.01086956521739 12.691270860077  L 0.377038043478261 7.25096277278562  C 0.125679347826087 7.0451433461703  0 6.79482242190843  0 6.5  C 0 6.21074026529739  0.125679347826087 5.95763799743261  0.377038043478261 5.74069319640565  L 7.01086956521739 0.317073170731708  C 7.26902173913044 0.105691056910568  7.578125 0  7.93817934782609 0  C 8.2914402173913 0  8.59714673913044 0.105691056910568  8.85529891304348 0.317073170731708  L 9.6195652173913 0.934531450577664  C 9.87771739130435 1.1459135643988  10.0067934782609 1.39901583226358  10.0067934782609 1.69383825417202  C 10.0067934782609 1.98866067608044  9.87771739130435 2.24176294394523  9.6195652173913 2.45314505776637  L 6.63383152173913 4.89794608472401  L 13.8077445652174 4.89794608472401  C 14.1610054347826 4.89794608472401  14.4480298913043 5.00224646983312  14.6688179347826 5.21084724005135  Z " fill-rule="nonzero" fill="#28c76f" stroke="none" transform="matrix(1 0 0 1 273 137 )" />
  </g>
</svg>