<?xml version="1.0" encoding="utf-8"?>
<svg version="1.1" xmlns:xlink="http://www.w3.org/1999/xlink" width="414px" height="178px" xmlns="http://www.w3.org/2000/svg">
  <g transform="matrix(1 0 0 1 -251 -680 )">
    <path d="M 252 684  A 3 3 0 0 1 255 681 L 661 681  A 3 3 0 0 1 664 684 L 664 854  A 3 3 0 0 1 661 857 L 255 857  A 3 3 0 0 1 252 854 L 252 684  Z " fill-rule="nonzero" fill="#ff3399" stroke="none" fill-opacity="0.0980392156862745" />
    <path d="M 251.5 684  A 3.5 3.5 0 0 1 255 680.5 L 661 680.5  A 3.5 3.5 0 0 1 664.5 684 L 664.5 854  A 3.5 3.5 0 0 1 661 857.5 L 255 857.5  A 3.5 3.5 0 0 1 251.5 854 L 251.5 684  Z " stroke-width="1" stroke-dasharray="9,4" stroke="#ff3399" fill="none" stroke-dashoffset="0.5" />
  </g>
</svg>