<?xml version="1.0" encoding="utf-8"?>
<svg version="1.1" xmlns:xlink="http://www.w3.org/1999/xlink" width="12px" height="12px" viewBox="1705 247  12 12" xmlns="http://www.w3.org/2000/svg">
  <path d="M 1711 247  C 1714.36 247  1717 249.64  1717 253  C 1717 256.36  1714.36 259  1711 259  C 1707.64 259  1705 256.36  1705 253  C 1705 249.64  1707.64 247  1711 247  Z " fill-rule="nonzero" fill="#ffffff" stroke="none" />
  <path d="M 1711 247.5  C 1714.08 247.5  1716.5 249.92  1716.5 253  C 1716.5 256.08  1714.08 258.5  1711 258.5  C 1707.92 258.5  1705.5 256.08  1705.5 253  C 1705.5 249.92  1707.92 247.5  1711 247.5  Z " stroke-width="1" stroke="#797979" fill="none" />
  <path d="M 1711 256  C 1709.32 256  1708 254.68  1708 253  C 1708 251.32  1709.32 250  1711 250  C 1712.68 250  1714 251.32  1714 253  C 1714 254.68  1712.68 256  1711 256  " fill-rule="nonzero" fill="#797979" stroke="none" />
</svg>