<?xml version="1.0" encoding="utf-8"?>
<svg version="1.1" xmlns:xlink="http://www.w3.org/1999/xlink" width="12px" height="12px" viewBox="1617 247  12 12" xmlns="http://www.w3.org/2000/svg">
  <path d="M 1623 247  C 1626.36 247  1629 249.64  1629 253  C 1629 256.36  1626.36 259  1623 259  C 1619.64 259  1617 256.36  1617 253  C 1617 249.64  1619.64 247  1623 247  Z " fill-rule="nonzero" fill="#ffffff" stroke="none" />
  <path d="M 1623 247.5  C 1626.08 247.5  1628.5 249.92  1628.5 253  C 1628.5 256.08  1626.08 258.5  1623 258.5  C 1619.92 258.5  1617.5 256.08  1617.5 253  C 1617.5 249.92  1619.92 247.5  1623 247.5  Z " stroke-width="1" stroke="#797979" fill="none" />
  <path d="M 1623 256  C 1621.32 256  1620 254.68  1620 253  C 1620 251.32  1621.32 250  1623 250  C 1624.68 250  1626 251.32  1626 253  C 1626 254.68  1624.68 256  1623 256  " fill-rule="nonzero" fill="#797979" stroke="none" />
</svg>