<?xml version="1.0" encoding="utf-8"?>
<svg version="1.1" xmlns:xlink="http://www.w3.org/1999/xlink" width="1015px" height="128px" xmlns="http://www.w3.org/2000/svg">
  <g transform="matrix(1 0 0 1 -245 -667 )">
    <path d="M 246 671  A 3 3 0 0 1 249 668 L 1256 668  A 3 3 0 0 1 1259 671 L 1259 791  A 3 3 0 0 1 1256 794 L 249 794  A 3 3 0 0 1 246 791 L 246 671  Z " fill-rule="nonzero" fill="#ff3399" stroke="none" fill-opacity="0.0980392156862745" />
    <path d="M 245.5 671  A 3.5 3.5 0 0 1 249 667.5 L 1256 667.5  A 3.5 3.5 0 0 1 1259.5 671 L 1259.5 791  A 3.5 3.5 0 0 1 1256 794.5 L 249 794.5  A 3.5 3.5 0 0 1 245.5 791 L 245.5 671  Z " stroke-width="1" stroke-dasharray="9,4" stroke="#ff3399" fill="none" stroke-dashoffset="0.5" />
  </g>
</svg>