<?xml version="1.0" encoding="utf-8"?>
<svg version="1.1" xmlns:xlink="http://www.w3.org/1999/xlink" width="157px" height="165px" xmlns="http://www.w3.org/2000/svg">
  <defs>
    <filter x="273px" y="440px" width="157px" height="165px" filterUnits="userSpaceOnUse" id="filter213">
      <feOffset dx="2" dy="2" in="SourceAlpha" result="shadowOffsetInner" />
      <feGaussianBlur stdDeviation="2.5" in="shadowOffsetInner" result="shadowGaussian" />
      <feComposite in2="shadowGaussian" operator="atop" in="SourceAlpha" result="shadowComposite" />
      <feColorMatrix type="matrix" values="0 0 0 0 0.8  0 0 0 0 0.8  0 0 0 0 0.8  0 0 0 0.349019607843137 0  " in="shadowComposite" />
    </filter>
    <g id="widget214">
      <path d="M 277 447  A 3 3 0 0 1 280 444 L 419 444  A 3 3 0 0 1 422 447 L 422 594  A 3 3 0 0 1 419 597 L 280 597  A 3 3 0 0 1 277 594 L 277 447  Z " fill-rule="nonzero" fill="#ffffff" stroke="none" />
      <path d="M 276.5 447  A 3.5 3.5 0 0 1 280 443.5 L 419 443.5  A 3.5 3.5 0 0 1 422.5 447 L 422.5 594  A 3.5 3.5 0 0 1 419 597.5 L 280 597.5  A 3.5 3.5 0 0 1 276.5 594 L 276.5 447  Z " stroke-width="1" stroke="#cccccc" fill="none" stroke-opacity="0.349019607843137" />
    </g>
  </defs>
  <g transform="matrix(1 0 0 1 -273 -440 )">
    <use xlink:href="#widget214" filter="url(#filter213)" />
    <use xlink:href="#widget214" />
  </g>
</svg>