<?xml version="1.0" encoding="utf-8"?>
<svg version="1.1" xmlns:xlink="http://www.w3.org/1999/xlink" width="28px" height="28px" xmlns="http://www.w3.org/2000/svg">
  <defs>
    <filter x="834px" y="2035px" width="28px" height="28px" filterUnits="userSpaceOnUse" id="filter353">
      <feOffset dx="0" dy="1" in="SourceAlpha" result="shadowOffsetInner" />
      <feGaussianBlur stdDeviation="1" in="shadowOffsetInner" result="shadowGaussian" />
      <feComposite in2="shadowGaussian" operator="atop" in="SourceAlpha" result="shadowComposite" />
      <feColorMatrix type="matrix" values="0 0 0 0 0  0 0 0 0 0  0 0 0 0 0  0 0 0 0.349019607843137 0  " in="shadowComposite" />
    </filter>
    <g id="widget354">
      <path d="M 848 2036  C 854.72 2036  860 2041.28  860 2048  C 860 2054.72  854.72 2060  848 2060  C 841.28 2060  836 2054.72  836 2048  C 836 2041.28  841.28 2036  848 2036  Z " fill-rule="nonzero" fill="#ffffff" stroke="none" />
      <path d="M 848 2036.5  C 854.44 2036.5  859.5 2041.56  859.5 2048  C 859.5 2054.44  854.44 2059.5  848 2059.5  C 841.56 2059.5  836.5 2054.44  836.5 2048  C 836.5 2041.56  841.56 2036.5  848 2036.5  Z " stroke-width="1" stroke="#d9d9d9" fill="none" />
    </g>
  </defs>
  <g transform="matrix(1 0 0 1 -834 -2035 )">
    <use xlink:href="#widget354" filter="url(#filter353)" />
    <use xlink:href="#widget354" />
  </g>
</svg>