<?xml version="1.0" encoding="utf-8"?>
<svg version="1.1" xmlns:xlink="http://www.w3.org/1999/xlink" width="39px" height="39px" xmlns="http://www.w3.org/2000/svg">
  <g transform="matrix(1 0 0 1 -634 -1589 )">
    <path d="M 653.5 1589  C 664.42 1589  673 1597.58  673 1608.5  C 673 1619.42  664.42 1628  653.5 1628  C 642.58 1628  634 1619.42  634 1608.5  C 634 1597.58  642.58 1589  653.5 1589  Z " fill-rule="nonzero" fill="#ffffff" stroke="none" />
    <path d="M 653.5 1589.5  C 664.14 1589.5  672.5 1597.86  672.5 1608.5  C 672.5 1619.14  664.14 1627.5  653.5 1627.5  C 642.86 1627.5  634.5 1619.14  634.5 1608.5  C 634.5 1597.86  642.86 1589.5  653.5 1589.5  Z " stroke-width="1" stroke="#ffffff" fill="none" />
  </g>
</svg>