<?xml version="1.0" encoding="utf-8"?>
<svg version="1.1" xmlns:xlink="http://www.w3.org/1999/xlink" width="64px" height="64px" xmlns="http://www.w3.org/2000/svg">
  <g transform="matrix(1 0 0 1 -622 -1577 )">
    <path d="M 651.333511537483 1577.61306260062  C 652.22026999089 1577.53772771924  653.109897522075 1577.5  654 1577.5  C 671.39696961967 1577.5  685.5 1591.60303038033  685.5 1609  C 685.5 1626.39696961967  671.39696961967 1640.5  654 1640.5  C 636.60303038033 1640.5  622.5 1626.39696961967  622.5 1609  C 622.5 1603.63735536427  623.869029054164 1598.36633840497  626.473635776507 1593.68499647495  L 653.75 1609.43301270189  A 0.5 0.5 0 0 0 654.497470760719 1608.9497720971 L 651.333511537502 1577.61306260062  Z " fill-rule="nonzero" fill="#99d5fd" stroke="none" />
    <path d="M 651.333511537483 1577.61306260062  C 652.22026999089 1577.53772771924  653.109897522075 1577.5  654 1577.5  C 671.39696961967 1577.5  685.5 1591.60303038033  685.5 1609  C 685.5 1626.39696961967  671.39696961967 1640.5  654 1640.5  C 636.60303038033 1640.5  622.5 1626.39696961967  622.5 1609  C 622.5 1603.63735536427  623.869029054164 1598.36633840497  626.473635776507 1593.68499647495  L 653.75 1609.43301270189  A 0.5 0.5 0 0 0 654.497470760719 1608.9497720971 L 651.333511537502 1577.61306260062  Z " stroke-width="1" stroke="#ffffff" fill="none" />
  </g>
</svg>