<?xml version="1.0" encoding="utf-8"?>
<svg version="1.1" xmlns:xlink="http://www.w3.org/1999/xlink" width="8px" height="8px" xmlns="http://www.w3.org/2000/svg">
  <g transform="matrix(1 0 0 1 -738 -1905 )">
    <path d="M 742 1905  C 744.24 1905  746 1906.76  746 1909  C 746 1911.24  744.24 1913  742 1913  C 739.76 1913  738 1911.24  738 1909  C 738 1906.76  739.76 1905  742 1905  Z " fill-rule="nonzero" fill="#1890ff" stroke="none" />
    <path d="M 742 1905.5  C 743.96 1905.5  745.5 1907.04  745.5 1909  C 745.5 1910.96  743.96 1912.5  742 1912.5  C 740.04 1912.5  738.5 1910.96  738.5 1909  C 738.5 1907.04  740.04 1905.5  742 1905.5  Z " stroke-width="1" stroke="#ffffff" fill="none" />
  </g>
</svg>