<?xml version="1.0" encoding="utf-8"?>
<svg version="1.1" xmlns:xlink="http://www.w3.org/1999/xlink" width="64px" height="64px" xmlns="http://www.w3.org/2000/svg">
  <g transform="matrix(1 0 0 1 -857 -1577 )">
    <path d="M 886.333511537483 1577.61306260062  C 887.22026999089 1577.53772771924  888.109897522075 1577.5  889 1577.5  C 906.39696961967 1577.5  920.5 1591.60303038033  920.5 1609  C 920.5 1626.39696961967  906.39696961967 1640.5  889 1640.5  C 872.852014491797 1640.5  859.349015581785 1628.29642682772  857.672190417079 1612.28974163612  L 889.044318343823 1609.49803201142  A 0.5 0.5 0 0 0 889.497470760719 1608.9497720971 L 886.333511537502 1577.61306260062  Z " fill-rule="nonzero" fill="#0096fa" stroke="none" />
    <path d="M 886.333511537483 1577.61306260062  C 887.22026999089 1577.53772771924  888.109897522075 1577.5  889 1577.5  C 906.39696961967 1577.5  920.5 1591.60303038033  920.5 1609  C 920.5 1626.39696961967  906.39696961967 1640.5  889 1640.5  C 872.852014491797 1640.5  859.349015581785 1628.29642682772  857.672190417079 1612.28974163612  L 889.044318343823 1609.49803201142  A 0.5 0.5 0 0 0 889.497470760719 1608.9497720971 L 886.333511537502 1577.61306260062  Z " stroke-width="1" stroke="#ffffff" fill="none" />
  </g>
</svg>