<?xml version="1.0" encoding="utf-8"?>
<svg version="1.1" xmlns:xlink="http://www.w3.org/1999/xlink" width="10px" height="12px" xmlns="http://www.w3.org/2000/svg">
  <g transform="matrix(1 0 0 1 -413 -84 )">
    <path d="M 0.769230769230769 9.21428571428571  L 0.769230769230769 11.1428571428571  L 2.5 11.1428571428571  L 2.5 9.21428571428571  L 0.769230769230769 9.21428571428571  Z M 2.88461538461538 9.21428571428571  L 2.88461538461538 11.1428571428571  L 4.80769230769231 11.1428571428571  L 4.80769230769231 9.21428571428571  L 2.88461538461538 9.21428571428571  Z M 0.769230769230769 6.64285714285714  L 0.769230769230769 8.78571428571429  L 2.5 8.78571428571429  L 2.5 6.64285714285714  L 0.769230769230769 6.64285714285714  Z M 2.88461538461538 6.64285714285714  L 2.88461538461538 8.78571428571429  L 4.80769230769231 8.78571428571429  L 4.80769230769231 6.64285714285714  L 2.88461538461538 6.64285714285714  Z M 0.769230769230769 4.28571428571428  L 0.769230769230769 6.21428571428571  L 2.5 6.21428571428571  L 2.5 4.28571428571428  L 0.769230769230769 4.28571428571428  Z M 5.19230769230769 9.21428571428571  L 5.19230769230769 11.1428571428571  L 7.11538461538462 11.1428571428571  L 7.11538461538462 9.21428571428571  L 5.19230769230769 9.21428571428571  Z M 2.88461538461538 4.28571428571428  L 2.88461538461538 6.21428571428571  L 4.80769230769231 6.21428571428571  L 4.80769230769231 4.28571428571428  L 2.88461538461538 4.28571428571428  Z M 7.5 9.21428571428571  L 7.5 11.1428571428571  L 9.23076923076923 11.1428571428571  L 9.23076923076923 9.21428571428571  L 7.5 9.21428571428571  Z M 5.19230769230769 6.64285714285714  L 5.19230769230769 8.78571428571429  L 7.11538461538462 8.78571428571429  L 7.11538461538462 6.64285714285714  L 5.19230769230769 6.64285714285714  Z M 3.01983173076923 3.15066964285714  C 3.05789262820513 3.10825892857143  3.07692307692308 3.05803571428571  3.07692307692308 3  L 3.07692307692308 1.07142857142857  C 3.07692307692308 1.01339285714286  3.05789262820513 0.963169642857142  3.01983173076923 0.920758928571428  C 2.98177083333333 0.878348214285713  2.93669871794872 0.857142857142857  2.88461538461538 0.857142857142857  L 2.5 0.857142857142857  C 2.44791666666667 0.857142857142857  2.40284455128205 0.878348214285713  2.36478365384615 0.920758928571428  C 2.32672275641026 0.963169642857142  2.30769230769231 1.01339285714286  2.30769230769231 1.07142857142857  L 2.30769230769231 3  C 2.30769230769231 3.05803571428571  2.32672275641026 3.10825892857143  2.36478365384615 3.15066964285714  C 2.40284455128205 3.19308035714286  2.44791666666667 3.21428571428571  2.5 3.21428571428571  L 2.88461538461538 3.21428571428571  C 2.93669871794872 3.21428571428571  2.98177083333333 3.19308035714286  3.01983173076923 3.15066964285714  Z M 7.5 6.64285714285714  L 7.5 8.78571428571429  L 9.23076923076923 8.78571428571429  L 9.23076923076923 6.64285714285714  L 7.5 6.64285714285714  Z M 5.19230769230769 4.28571428571428  L 5.19230769230769 6.21428571428571  L 7.11538461538462 6.21428571428571  L 7.11538461538462 4.28571428571428  L 5.19230769230769 4.28571428571428  Z M 7.5 4.28571428571428  L 7.5 6.21428571428571  L 9.23076923076923 6.21428571428571  L 9.23076923076923 4.28571428571428  L 7.5 4.28571428571428  Z M 7.63521634615385 3.15066964285714  C 7.67327724358974 3.10825892857143  7.69230769230769 3.05803571428571  7.69230769230769 3  L 7.69230769230769 1.07142857142857  C 7.69230769230769 1.01339285714286  7.67327724358974 0.963169642857142  7.63521634615385 0.920758928571428  C 7.59715544871795 0.878348214285713  7.55208333333333 0.857142857142857  7.5 0.857142857142857  L 7.11538461538462 0.857142857142857  C 7.06330128205128 0.857142857142857  7.01822916666667 0.878348214285713  6.98016826923077 0.920758928571428  C 6.94210737179487 0.963169642857142  6.92307692307692 1.01339285714286  6.92307692307692 1.07142857142857  L 6.92307692307692 3  C 6.92307692307692 3.05803571428571  6.94210737179487 3.10825892857143  6.98016826923077 3.15066964285714  C 7.01822916666667 3.19308035714286  7.06330128205128 3.21428571428571  7.11538461538462 3.21428571428571  L 7.5 3.21428571428571  C 7.55208333333333 3.21428571428571  7.59715544871795 3.19308035714286  7.63521634615385 3.15066964285714  Z M 9.77163461538462 1.96875  C 9.92387820512821 2.13839285714286  10 2.33928571428571  10 2.57142857142857  L 10 11.1428571428571  C 10 11.375  9.92387820512821 11.5758928571429  9.77163461538462 11.7455357142857  C 9.61939102564103 11.9151785714286  9.43910256410257 12  9.23076923076923 12  L 0.769230769230769 12  C 0.560897435897436 12  0.380608974358974 11.9151785714286  0.228365384615385 11.7455357142857  C 0.0761217948717949 11.5758928571429  0 11.375  0 11.1428571428571  L 0 2.57142857142857  C 0 2.33928571428571  0.0761217948717949 2.13839285714286  0.228365384615385 1.96875  C 0.380608974358974 1.79910714285714  0.560897435897436 1.71428571428571  0.769230769230769 1.71428571428571  L 1.53846153846154 1.71428571428571  L 1.53846153846154 1.07142857142857  C 1.53846153846154 0.776785714285715  1.63261217948718 0.524553571428571  1.82091346153846 0.314732142857143  C 2.00921474358974 0.104910714285714  2.23557692307692 0  2.5 0  L 2.88461538461538 0  C 3.14903846153846 0  3.37540064102564 0.104910714285714  3.56370192307692 0.314732142857143  C 3.75200320512821 0.524553571428571  3.84615384615385 0.776785714285715  3.84615384615385 1.07142857142857  L 3.84615384615385 1.71428571428571  L 6.15384615384615 1.71428571428571  L 6.15384615384615 1.07142857142857  C 6.15384615384615 0.776785714285715  6.2479967948718 0.524553571428571  6.43629807692308 0.314732142857143  C 6.62459935897436 0.104910714285714  6.85096153846154 0  7.11538461538462 0  L 7.5 0  C 7.76442307692308 0  7.99078525641026 0.104910714285714  8.17908653846154 0.314732142857143  C 8.36738782051282 0.524553571428571  8.46153846153846 0.776785714285715  8.46153846153846 1.07142857142857  L 8.46153846153846 1.71428571428571  L 9.23076923076923 1.71428571428571  C 9.43910256410257 1.71428571428571  9.61939102564103 1.79910714285714  9.77163461538462 1.96875  Z " fill-rule="nonzero" fill="#000000" stroke="none" transform="matrix(1 0 0 1 413 84 )" />
  </g>
</svg>