<?xml version="1.0" encoding="utf-8"?>
<svg version="1.1" xmlns:xlink="http://www.w3.org/1999/xlink" width="305px" height="48px" xmlns="http://www.w3.org/2000/svg">
  <g transform="matrix(1 0 0 1 -609 -363 )">
    <path d="M 610 367  A 3 3 0 0 1 613 364 L 910 364  A 3 3 0 0 1 913 367 L 913 407  A 3 3 0 0 1 910 410 L 613 410  A 3 3 0 0 1 610 407 L 610 367  Z " fill-rule="nonzero" fill="#ff3399" stroke="none" fill-opacity="0.0980392156862745" />
    <path d="M 609.5 367  A 3.5 3.5 0 0 1 613 363.5 L 910 363.5  A 3.5 3.5 0 0 1 913.5 367 L 913.5 407  A 3.5 3.5 0 0 1 910 410.5 L 613 410.5  A 3.5 3.5 0 0 1 609.5 407 L 609.5 367  Z " stroke-width="1" stroke-dasharray="9,4" stroke="#ff3399" fill="none" stroke-dashoffset="0.5" />
  </g>
</svg>