<?xml version="1.0" encoding="utf-8"?>
<svg version="1.1" xmlns:xlink="http://www.w3.org/1999/xlink" width="305px" height="80px" xmlns="http://www.w3.org/2000/svg">
  <g transform="matrix(1 0 0 1 -841 -96 )">
    <path d="M 842 100  A 3 3 0 0 1 845 97 L 1142 97  A 3 3 0 0 1 1145 100 L 1145 172  A 3 3 0 0 1 1142 175 L 845 175  A 3 3 0 0 1 842 172 L 842 100  Z " fill-rule="nonzero" fill="#ff3399" stroke="none" fill-opacity="0.0980392156862745" />
    <path d="M 841.5 100  A 3.5 3.5 0 0 1 845 96.5 L 1142 96.5  A 3.5 3.5 0 0 1 1145.5 100 L 1145.5 172  A 3.5 3.5 0 0 1 1142 175.5 L 845 175.5  A 3.5 3.5 0 0 1 841.5 172 L 841.5 100  Z " stroke-width="1" stroke-dasharray="9,4" stroke="#ff3399" fill="none" stroke-dashoffset="0.5" />
  </g>
</svg>