<?xml version="1.0" encoding="utf-8"?>
<svg version="1.1" xmlns:xlink="http://www.w3.org/1999/xlink" width="56px" height="164px" xmlns="http://www.w3.org/2000/svg">
  <g transform="matrix(1 0 0 1 -73 -407 )">
    <path d="M 56 23.3995037220844  C 56 25.1629445822994  55.6576576576577 26.6889991728701  54.972972972973 27.9776674937965  L 26.2702702702703 82  L 54.972972972973 136.022332506203  C 55.6576576576577 137.31100082713  56 138.837055417701  56 140.600496277916  C 56 142.363937138131  55.6576576576577 143.889991728701  54.972972972973 145.178660049628  L 46 162.06699751861  C 45.3153153153153 163.355665839537  44.5045045045045 164  43.5675675675676 164  C 42.6306306306306 164  41.8198198198198 163.355665839537  41.1351351351351 162.06699751861  L 1.02702702702703 86.5781637717122  C 0.342342342342343 85.2894954507858  0 83.7634408602151  0 82  C 0 80.2365591397849  0.342342342342343 78.7105045492142  1.02702702702703 77.4218362282878  L 41.1351351351351 1.93300248138957  C 41.8198198198198 0.644334160463185  42.6306306306306 0  43.5675675675676 0  C 44.5045045045045 0  45.3153153153153 0.644334160463185  46 1.93300248138957  L 54.972972972973 18.8213399503722  C 55.6576576576577 20.1100082712986  56 21.6360628618693  56 23.3995037220844  Z " fill-rule="nonzero" fill="#000000" stroke="none" transform="matrix(1 0 0 1 73 407 )" />
  </g>
</svg>