<?xml version="1.0" encoding="utf-8"?>
<svg version="1.1" xmlns:xlink="http://www.w3.org/1999/xlink" width="900px" height="650px" xmlns="http://www.w3.org/2000/svg">
  <g transform="matrix(1 0 0 1 -279 -178 )">
    <path d="M 279 178  L 1179 178  L 1179 828  L 279 828  L 279 178  " fill-rule="nonzero" fill="#cccccc" stroke="none" />
    <path d="M 325 224  L 1133 224  L 1133 782  L 325 782  L 325 224  " fill-rule="nonzero" fill="#ffffff" stroke="none" />
    <path d="M 795.75 373  C 768.45 373  747 351.55  747 324.25  C 747 296.95  768.45 275.5  795.75 275.5  C 823.05 275.5  844.5 296.95  844.5 324.25  C 844.5 351.55  823.05 373  795.75 373  " fill-rule="nonzero" fill="#cccccc" stroke="none" />
    <path d="M 342 766  L 342 477.25  L 535.75 346  L 807 538.5  L 962 424.75  L 1117 538.5  L 1117 766  L 342 766  " fill-rule="nonzero" fill="#169bd5" stroke="none" />
  </g>
</svg>