<?xml version="1.0" encoding="utf-8"?>
<svg version="1.1" xmlns:xlink="http://www.w3.org/1999/xlink" width="32px" height="32px" xmlns="http://www.w3.org/2000/svg">
  <g transform="matrix(1 0 0 1 -489 -30 )">
    <path d="M 505 30.5  C 513.68 30.5  520.5 37.32  520.5 46  C 520.5 54.68  513.68 61.5  505 61.5  C 496.32 61.5  489.5 54.68  489.5 46  C 489.5 37.32  496.32 30.5  505 30.5  Z " fill-rule="nonzero" fill="#ffffff" stroke="none" fill-opacity="0" />
    <path d="M 505 30.5  C 513.68 30.5  520.5 37.32  520.5 46  C 520.5 54.68  513.68 61.5  505 61.5  C 496.32 61.5  489.5 54.68  489.5 46  C 489.5 37.32  496.32 30.5  505 30.5  Z " stroke-width="1" stroke="#000000" fill="none" stroke-opacity="0.149019607843137" />
  </g>
</svg>