<?xml version="1.0" encoding="utf-8"?>
<svg version="1.1" xmlns:xlink="http://www.w3.org/1999/xlink" width="120px" height="32px" xmlns="http://www.w3.org/2000/svg">
  <g transform="matrix(1 0 0 1 -976 -589 )">
    <path d="M 977 593  A 3 3 0 0 1 980 590 L 1092 590  A 3 3 0 0 1 1095 593 L 1095 617  A 3 3 0 0 1 1092 620 L 980 620  A 3 3 0 0 1 977 617 L 977 593  Z " fill-rule="nonzero" fill="#ffffff" stroke="none" />
    <path d="M 976.5 593  A 3.5 3.5 0 0 1 980 589.5 L 1092 589.5  A 3.5 3.5 0 0 1 1095.5 593 L 1095.5 617  A 3.5 3.5 0 0 1 1092 620.5 L 980 620.5  A 3.5 3.5 0 0 1 976.5 617 L 976.5 593  Z " stroke-width="1" stroke-dasharray="9,4" stroke="#d9d9d9" fill="none" stroke-dashoffset="0.5" />
  </g>
</svg>