<?xml version="1.0" encoding="utf-8"?>
<svg version="1.1" xmlns:xlink="http://www.w3.org/1999/xlink" width="490px" height="810px" xmlns="http://www.w3.org/2000/svg">
  <g transform="matrix(1 0 0 1 -1486 -114 )">
    <path d="M 1487 118  A 3 3 0 0 1 1490 115 L 1972 115  A 3 3 0 0 1 1975 118 L 1975 920  A 3 3 0 0 1 1972 923 L 1490 923  A 3 3 0 0 1 1487 920 L 1487 118  Z " fill-rule="nonzero" fill="#ff3399" stroke="none" fill-opacity="0.0980392156862745" />
    <path d="M 1486.5 118  A 3.5 3.5 0 0 1 1490 114.5 L 1972 114.5  A 3.5 3.5 0 0 1 1975.5 118 L 1975.5 920  A 3.5 3.5 0 0 1 1972 923.5 L 1490 923.5  A 3.5 3.5 0 0 1 1486.5 920 L 1486.5 118  Z " stroke-width="1" stroke-dasharray="9,4" stroke="#ff3399" fill="none" stroke-dashoffset="0.5" />
  </g>
</svg>