<?xml version="1.0" encoding="utf-8"?>
<svg version="1.1" xmlns:xlink="http://www.w3.org/1999/xlink" width="120px" height="32px" xmlns="http://www.w3.org/2000/svg">
  <g transform="matrix(1 0 0 1 -278 -74 )">
    <path d="M 279 78  A 3 3 0 0 1 282 75 L 394 75  A 3 3 0 0 1 397 78 L 397 102  A 3 3 0 0 1 394 105 L 282 105  A 3 3 0 0 1 279 102 L 279 78  Z " fill-rule="nonzero" fill="#ffffff" stroke="none" />
    <path d="M 278.5 78  A 3.5 3.5 0 0 1 282 74.5 L 394 74.5  A 3.5 3.5 0 0 1 397.5 78 L 397.5 102  A 3.5 3.5 0 0 1 394 105.5 L 282 105.5  A 3.5 3.5 0 0 1 278.5 102 L 278.5 78  Z " stroke-width="1" stroke="#cccccc" fill="none" stroke-opacity="0.2" />
  </g>
</svg>