<?xml version="1.0" encoding="utf-8"?>
<svg version="1.1" xmlns:xlink="http://www.w3.org/1999/xlink" width="1072px" height="32px" xmlns="http://www.w3.org/2000/svg">
  <g transform="matrix(1 0 0 1 -311 -193 )">
    <path d="M 312 197  A 3 3 0 0 1 315 194 L 1379 194  A 3 3 0 0 1 1382 197 L 1382 221  A 3 3 0 0 1 1379 224 L 315 224  A 3 3 0 0 1 312 221 L 312 197  Z " fill-rule="nonzero" fill="#ffffff" stroke="none" />
    <path d="M 311.5 197  A 3.5 3.5 0 0 1 315 193.5 L 1379 193.5  A 3.5 3.5 0 0 1 1382.5 197 L 1382.5 221  A 3.5 3.5 0 0 1 1379 224.5 L 315 224.5  A 3.5 3.5 0 0 1 311.5 221 L 311.5 197  Z " stroke-width="1" stroke-dasharray="9,4" stroke="#e8e8e8" fill="none" stroke-dashoffset="0.5" />
  </g>
</svg>