<?xml version="1.0" encoding="utf-8"?>
<svg version="1.1" xmlns:xlink="http://www.w3.org/1999/xlink" width="5px" height="5px" xmlns="http://www.w3.org/2000/svg">
  <g transform="matrix(1 0 0 1 -729 -569 )">
    <path d="M 731.5 569  C 732.9 569  734 570.1  734 571.5  C 734 572.9  732.9 574  731.5 574  C 730.1 574  729 572.9  729 571.5  C 729 570.1  730.1 569  731.5 569  Z " fill-rule="nonzero" fill="#ff0000" stroke="none" />
    <path d="M 731.5 569.5  C 732.62 569.5  733.5 570.38  733.5 571.5  C 733.5 572.62  732.62 573.5  731.5 573.5  C 730.38 573.5  729.5 572.62  729.5 571.5  C 729.5 570.38  730.38 569.5  731.5 569.5  Z " stroke-width="1" stroke="#ff0000" fill="none" />
  </g>
</svg>