<?xml version="1.0" encoding="utf-8"?>
<svg version="1.1" xmlns:xlink="http://www.w3.org/1999/xlink" width="30px" height="30px" xmlns="http://www.w3.org/2000/svg">
  <g transform="matrix(1 0 0 1 -1300 -664 )">
    <path d="M 1315 664  C 1323.4 664  1330 670.6  1330 679  C 1330 687.4  1323.4 694  1315 694  C 1306.6 694  1300 687.4  1300 679  C 1300 670.6  1306.6 664  1315 664  Z " fill-rule="nonzero" fill="#ff0000" stroke="none" />
    <path d="M 1315 664.5  C 1323.12 664.5  1329.5 670.88  1329.5 679  C 1329.5 687.12  1323.12 693.5  1315 693.5  C 1306.88 693.5  1300.5 687.12  1300.5 679  C 1300.5 670.88  1306.88 664.5  1315 664.5  Z " stroke-width="1" stroke="#797979" fill="none" />
  </g>
</svg>