<?xml version="1.0" encoding="utf-8"?>
<svg version="1.1" xmlns:xlink="http://www.w3.org/1999/xlink" width="695px" height="352px" xmlns="http://www.w3.org/2000/svg">
  <g transform="matrix(1 0 0 1 -245 -654 )">
    <path d="M 246 658  A 3 3 0 0 1 249 655 L 936 655  A 3 3 0 0 1 939 658 L 939 1002  A 3 3 0 0 1 936 1005 L 249 1005  A 3 3 0 0 1 246 1002 L 246 658  Z " fill-rule="nonzero" fill="#ff3399" stroke="none" fill-opacity="0.0980392156862745" />
    <path d="M 245.5 658  A 3.5 3.5 0 0 1 249 654.5 L 936 654.5  A 3.5 3.5 0 0 1 939.5 658 L 939.5 1002  A 3.5 3.5 0 0 1 936 1005.5 L 249 1005.5  A 3.5 3.5 0 0 1 245.5 1002 L 245.5 658  Z " stroke-width="1" stroke-dasharray="9,4" stroke="#ff3399" fill="none" stroke-dashoffset="0.5" />
  </g>
</svg>