<?xml version="1.0" encoding="utf-8"?>
<svg version="1.1" xmlns:xlink="http://www.w3.org/1999/xlink" width="12px" height="12px" viewBox="658 105  12 12" xmlns="http://www.w3.org/2000/svg">
  <path d="M 664 105  C 667.36 105  670 107.64  670 111  C 670 114.36  667.36 117  664 117  C 660.64 117  658 114.36  658 111  C 658 107.64  660.64 105  664 105  Z " fill-rule="nonzero" fill="#ffffff" stroke="none" />
  <path d="M 664 105.5  C 667.08 105.5  669.5 107.92  669.5 111  C 669.5 114.08  667.08 116.5  664 116.5  C 660.92 116.5  658.5 114.08  658.5 111  C 658.5 107.92  660.92 105.5  664 105.5  Z " stroke-width="1" stroke="#797979" fill="none" />
  <path d="M 664 114  C 662.32 114  661 112.68  661 111  C 661 109.32  662.32 108  664 108  C 665.68 108  667 109.32  667 111  C 667 112.68  665.68 114  664 114  " fill-rule="nonzero" fill="#797979" stroke="none" />
</svg>