<?xml version="1.0" encoding="utf-8"?>
<svg version="1.1" xmlns:xlink="http://www.w3.org/1999/xlink" width="12px" height="12px" viewBox="758 105  12 12" xmlns="http://www.w3.org/2000/svg">
  <path d="M 764 105  C 767.36 105  770 107.64  770 111  C 770 114.36  767.36 117  764 117  C 760.64 117  758 114.36  758 111  C 758 107.64  760.64 105  764 105  Z " fill-rule="nonzero" fill="#ffffff" stroke="none" />
  <path d="M 764 105.5  C 767.08 105.5  769.5 107.92  769.5 111  C 769.5 114.08  767.08 116.5  764 116.5  C 760.92 116.5  758.5 114.08  758.5 111  C 758.5 107.92  760.92 105.5  764 105.5  Z " stroke-width="1" stroke="#797979" fill="none" />
  <path d="M 764 114  C 762.32 114  761 112.68  761 111  C 761 109.32  762.32 108  764 108  C 765.68 108  767 109.32  767 111  C 767 112.68  765.68 114  764 114  " fill-rule="nonzero" fill="#797979" stroke="none" />
</svg>