<?xml version="1.0" encoding="utf-8"?>
<svg version="1.1" xmlns:xlink="http://www.w3.org/1999/xlink" width="7px" height="7px" xmlns="http://www.w3.org/2000/svg">
  <g transform="matrix(1 0 0 1 -704 -1026 )">
    <path d="M 6.83501683501683 5.23232323232323  C 6.94500561167228 5.34231200897867  7 5.47586980920314  7 5.63299663299663  C 7 5.79012345679012  6.94500561167228 5.92368125701459  6.83501683501683 6.03367003367003  L 6.03367003367003 6.83501683501683  C 5.92368125701459 6.94500561167228  5.79012345679012 7  5.63299663299663 7  C 5.47586980920314 7  5.34231200897868 6.94500561167228  5.23232323232323 6.83501683501683  L 3.5 5.1026936026936  L 1.76767676767677 6.83501683501683  C 1.65768799102132 6.94500561167228  1.52413019079686 7  1.36700336700337 7  C 1.20987654320988 7  1.07631874298541 6.94500561167228  0.966329966329966 6.83501683501683  L 0.164983164983165 6.03367003367003  C 0.0549943883277217 5.92368125701459  0 5.79012345679012  0 5.63299663299663  C 0 5.47586980920314  0.0549943883277217 5.34231200897867  0.164983164983165 5.23232323232323  L 1.8973063973064 3.5  L 0.164983164983165 1.76767676767677  C 0.0549943883277217 1.65768799102132  0 1.52413019079686  0 1.36700336700337  C 0 1.20987654320988  0.0549943883277217 1.07631874298541  0.164983164983165 0.966329966329967  L 0.966329966329966 0.164983164983165  C 1.07631874298541 0.0549943883277214  1.20987654320988 0  1.36700336700337 0  C 1.52413019079686 0  1.65768799102132 0.0549943883277214  1.76767676767677 0.164983164983165  L 3.5 1.8973063973064  L 5.23232323232323 0.164983164983165  C 5.34231200897868 0.0549943883277214  5.47586980920314 0  5.63299663299663 0  C 5.79012345679012 0  5.92368125701459 0.0549943883277214  6.03367003367003 0.164983164983165  L 6.83501683501683 0.966329966329967  C 6.94500561167228 1.07631874298541  7 1.20987654320988  7 1.36700336700337  C 7 1.52413019079686  6.94500561167228 1.65768799102132  6.83501683501683 1.76767676767677  L 5.1026936026936 3.5  L 6.83501683501683 5.23232323232323  Z " fill-rule="nonzero" fill="#c4c4c4" stroke="none" fill-opacity="0.996078431372549" transform="matrix(1 0 0 1 704 1026 )" />
  </g>
</svg>