<?xml version="1.0" encoding="utf-8"?>
<svg version="1.1" xmlns:xlink="http://www.w3.org/1999/xlink" width="231px" height="28px" xmlns="http://www.w3.org/2000/svg">
  <g transform="matrix(1 0 0 1 -917 -169 )">
    <path d="M 918 173  A 3 3 0 0 1 921 170 L 1144 170  A 3 3 0 0 1 1147 173 L 1147 193  A 3 3 0 0 1 1144 196 L 921 196  A 3 3 0 0 1 918 193 L 918 173  Z " fill-rule="nonzero" fill="#ff3399" stroke="none" fill-opacity="0.0980392156862745" />
    <path d="M 917.5 173  A 3.5 3.5 0 0 1 921 169.5 L 1144 169.5  A 3.5 3.5 0 0 1 1147.5 173 L 1147.5 193  A 3.5 3.5 0 0 1 1144 196.5 L 921 196.5  A 3.5 3.5 0 0 1 917.5 193 L 917.5 173  Z " stroke-width="1" stroke-dasharray="9,4" stroke="#ff3399" fill="none" stroke-dashoffset="0.5" />
  </g>
</svg>