<?xml version="1.0" encoding="utf-8"?>
<svg version="1.1" xmlns:xlink="http://www.w3.org/1999/xlink" width="262px" height="28px" xmlns="http://www.w3.org/2000/svg">
  <g transform="matrix(1 0 0 1 -487 -169 )">
    <path d="M 488 173  A 3 3 0 0 1 491 170 L 745 170  A 3 3 0 0 1 748 173 L 748 193  A 3 3 0 0 1 745 196 L 491 196  A 3 3 0 0 1 488 193 L 488 173  Z " fill-rule="nonzero" fill="#ff3399" stroke="none" fill-opacity="0.0980392156862745" />
    <path d="M 487.5 173  A 3.5 3.5 0 0 1 491 169.5 L 745 169.5  A 3.5 3.5 0 0 1 748.5 173 L 748.5 193  A 3.5 3.5 0 0 1 745 196.5 L 491 196.5  A 3.5 3.5 0 0 1 487.5 193 L 487.5 173  Z " stroke-width="1" stroke-dasharray="9,4" stroke="#ff3399" fill="none" stroke-dashoffset="0.5" />
  </g>
</svg>