<?xml version="1.0" encoding="utf-8"?>
<svg version="1.1" xmlns:xlink="http://www.w3.org/1999/xlink" width="421px" height="170px" xmlns="http://www.w3.org/2000/svg">
  <g transform="matrix(1 0 0 1 -823 -446 )">
    <path d="M 824 450  A 3 3 0 0 1 827 447 L 1240 447  A 3 3 0 0 1 1243 450 L 1243 612  A 3 3 0 0 1 1240 615 L 827 615  A 3 3 0 0 1 824 612 L 824 450  Z " fill-rule="nonzero" fill="#ffffff" stroke="none" fill-opacity="0" />
    <path d="M 823.5 450  A 3.5 3.5 0 0 1 827 446.5 L 1240 446.5  A 3.5 3.5 0 0 1 1243.5 450 L 1243.5 612  A 3.5 3.5 0 0 1 1240 615.5 L 827 615.5  A 3.5 3.5 0 0 1 823.5 612 L 823.5 450  Z " stroke-width="1" stroke-dasharray="9,4" stroke="#ff3399" fill="none" stroke-dashoffset="0.5" />
  </g>
</svg>