<?xml version="1.0" encoding="utf-8"?>
<svg version="1.1" xmlns:xlink="http://www.w3.org/1999/xlink" width="305px" height="144px" xmlns="http://www.w3.org/2000/svg">
  <g transform="matrix(1 0 0 1 -1212 -122 )">
    <path d="M 1213 126  A 3 3 0 0 1 1216 123 L 1513 123  A 3 3 0 0 1 1516 126 L 1516 262  A 3 3 0 0 1 1513 265 L 1216 265  A 3 3 0 0 1 1213 262 L 1213 126  Z " fill-rule="nonzero" fill="#ff3399" stroke="none" fill-opacity="0.0980392156862745" />
    <path d="M 1212.5 126  A 3.5 3.5 0 0 1 1216 122.5 L 1513 122.5  A 3.5 3.5 0 0 1 1516.5 126 L 1516.5 262  A 3.5 3.5 0 0 1 1513 265.5 L 1216 265.5  A 3.5 3.5 0 0 1 1212.5 262 L 1212.5 126  Z " stroke-width="1" stroke-dasharray="9,4" stroke="#ff3399" fill="none" stroke-dashoffset="0.5" />
  </g>
</svg>