<?xml version="1.0" encoding="utf-8"?>
<svg version="1.1" xmlns:xlink="http://www.w3.org/1999/xlink" width="299px" height="23px" xmlns="http://www.w3.org/2000/svg">
  <g transform="matrix(1 0 0 1 -680 -302 )">
    <path d="M 681 306  A 3 3 0 0 1 684 303 L 975 303  A 3 3 0 0 1 978 306 L 978 321  A 3 3 0 0 1 975 324 L 684 324  A 3 3 0 0 1 681 321 L 681 306  Z " fill-rule="nonzero" fill="#ff3399" stroke="none" fill-opacity="0.0980392156862745" />
    <path d="M 680.5 306  A 3.5 3.5 0 0 1 684 302.5 L 975 302.5  A 3.5 3.5 0 0 1 978.5 306 L 978.5 321  A 3.5 3.5 0 0 1 975 324.5 L 684 324.5  A 3.5 3.5 0 0 1 680.5 321 L 680.5 306  Z " stroke-width="1" stroke-dasharray="9,4" stroke="#ff3399" fill="none" stroke-dashoffset="0.5" />
  </g>
</svg>