<?xml version="1.0" encoding="utf-8"?>
<svg version="1.1" xmlns:xlink="http://www.w3.org/1999/xlink" width="459px" height="23px" xmlns="http://www.w3.org/2000/svg">
  <g transform="matrix(1 0 0 1 -680 -392 )">
    <path d="M 681 396  A 3 3 0 0 1 684 393 L 1135 393  A 3 3 0 0 1 1138 396 L 1138 411  A 3 3 0 0 1 1135 414 L 684 414  A 3 3 0 0 1 681 411 L 681 396  Z " fill-rule="nonzero" fill="#ff3399" stroke="none" fill-opacity="0.0980392156862745" />
    <path d="M 680.5 396  A 3.5 3.5 0 0 1 684 392.5 L 1135 392.5  A 3.5 3.5 0 0 1 1138.5 396 L 1138.5 411  A 3.5 3.5 0 0 1 1135 414.5 L 684 414.5  A 3.5 3.5 0 0 1 680.5 411 L 680.5 396  Z " stroke-width="1" stroke-dasharray="9,4" stroke="#ff3399" fill="none" stroke-dashoffset="0.5" />
  </g>
</svg>