<?xml version="1.0" encoding="utf-8"?>
<svg version="1.1" xmlns:xlink="http://www.w3.org/1999/xlink" width="419px" height="33px" xmlns="http://www.w3.org/2000/svg">
  <g transform="matrix(1 0 0 1 -699 -1207 )">
    <path d="M 700 1211  A 3 3 0 0 1 703 1208 L 1114 1208  A 3 3 0 0 1 1117 1211 L 1117 1236  A 3 3 0 0 1 1114 1239 L 703 1239  A 3 3 0 0 1 700 1236 L 700 1211  Z " fill-rule="nonzero" fill="#ff3399" stroke="none" fill-opacity="0.0980392156862745" />
    <path d="M 699.5 1211  A 3.5 3.5 0 0 1 703 1207.5 L 1114 1207.5  A 3.5 3.5 0 0 1 1117.5 1211 L 1117.5 1236  A 3.5 3.5 0 0 1 1114 1239.5 L 703 1239.5  A 3.5 3.5 0 0 1 699.5 1236 L 699.5 1211  Z " stroke-width="1" stroke-dasharray="9,4" stroke="#ff3399" fill="none" stroke-dashoffset="0.5" />
  </g>
</svg>