<?xml version="1.0" encoding="utf-8"?>
<svg version="1.1" xmlns:xlink="http://www.w3.org/1999/xlink" width="419px" height="158px" xmlns="http://www.w3.org/2000/svg">
  <g transform="matrix(1 0 0 1 -742 -973 )">
    <path d="M 743 977  A 3 3 0 0 1 746 974 L 1157 974  A 3 3 0 0 1 1160 977 L 1160 1127  A 3 3 0 0 1 1157 1130 L 746 1130  A 3 3 0 0 1 743 1127 L 743 977  Z " fill-rule="nonzero" fill="#ff3399" stroke="none" fill-opacity="0.0980392156862745" />
    <path d="M 742.5 977  A 3.5 3.5 0 0 1 746 973.5 L 1157 973.5  A 3.5 3.5 0 0 1 1160.5 977 L 1160.5 1127  A 3.5 3.5 0 0 1 1157 1130.5 L 746 1130.5  A 3.5 3.5 0 0 1 742.5 1127 L 742.5 977  Z " stroke-width="1" stroke-dasharray="9,4" stroke="#ff3399" fill="none" stroke-dashoffset="0.5" />
  </g>
</svg>