<?xml version="1.0" encoding="utf-8"?>
<svg version="1.1" xmlns:xlink="http://www.w3.org/1999/xlink" width="200px" height="48px" xmlns="http://www.w3.org/2000/svg">
  <g transform="matrix(1 0 0 1 -461 -110 )">
    <path d="M 462 114  A 3 3 0 0 1 465 111 L 657 111  A 3 3 0 0 1 660 114 L 660 154  A 3 3 0 0 1 657 157 L 465 157  A 3 3 0 0 1 462 154 L 462 114  Z " fill-rule="nonzero" fill="#ff3399" stroke="none" fill-opacity="0.0980392156862745" />
    <path d="M 461.5 114  A 3.5 3.5 0 0 1 465 110.5 L 657 110.5  A 3.5 3.5 0 0 1 660.5 114 L 660.5 154  A 3.5 3.5 0 0 1 657 157.5 L 465 157.5  A 3.5 3.5 0 0 1 461.5 154 L 461.5 114  Z " stroke-width="1" stroke-dasharray="9,4" stroke="#ff3399" fill="none" stroke-dashoffset="0.5" />
  </g>
</svg>