<?xml version="1.0" encoding="utf-8"?>
<svg version="1.1" xmlns:xlink="http://www.w3.org/1999/xlink" width="117px" height="370px" xmlns="http://www.w3.org/2000/svg">
  <g transform="matrix(1 0 0 1 -475 -175 )">
    <path d="M 476 179  A 3 3 0 0 1 479 176 L 588 176  A 3 3 0 0 1 591 179 L 591 541  A 3 3 0 0 1 588 544 L 479 544  A 3 3 0 0 1 476 541 L 476 179  Z " fill-rule="nonzero" fill="#ffffff" stroke="none" fill-opacity="0" />
    <path d="M 475.5 179  A 3.5 3.5 0 0 1 479 175.5 L 588 175.5  A 3.5 3.5 0 0 1 591.5 179 L 591.5 541  A 3.5 3.5 0 0 1 588 544.5 L 479 544.5  A 3.5 3.5 0 0 1 475.5 541 L 475.5 179  Z " stroke-width="1" stroke-dasharray="9,4" stroke="#ff3399" fill="none" stroke-dashoffset="0.5" />
  </g>
</svg>