<?xml version="1.0" encoding="utf-8"?>
<svg version="1.1" xmlns:xlink="http://www.w3.org/1999/xlink" width="441px" height="48px" xmlns="http://www.w3.org/2000/svg">
  <g transform="matrix(1 0 0 1 -12 -118 )">
    <path d="M 13 122  A 3 3 0 0 1 16 119 L 449 119  A 3 3 0 0 1 452 122 L 452 162  A 3 3 0 0 1 449 165 L 16 165  A 3 3 0 0 1 13 162 L 13 122  Z " fill-rule="nonzero" fill="#ffffff" stroke="none" fill-opacity="0" />
    <path d="M 12.5 122  A 3.5 3.5 0 0 1 16 118.5 L 449 118.5  A 3.5 3.5 0 0 1 452.5 122 L 452.5 162  A 3.5 3.5 0 0 1 449 165.5 L 16 165.5  A 3.5 3.5 0 0 1 12.5 162 L 12.5 122  Z " stroke-width="1" stroke-dasharray="9,4" stroke="#ff3399" fill="none" stroke-dashoffset="0.5" />
  </g>
</svg>