<?xml version="1.0" encoding="utf-8"?>
<svg version="1.1" xmlns:xlink="http://www.w3.org/1999/xlink" width="12px" height="12px" xmlns="http://www.w3.org/2000/svg">
  <g transform="matrix(1 0 0 1 -504 -18 )">
    <path d="M 11.8486138368212 11.1176591410012  L 6.73204365343856 6.00110264743389  L 11.8486138368212 0.884546153866583  C 11.9455447692092 0.787615480825526  12 0.656149275857964  12 0.519068603433343  C 12 0.233612880365491  11.76859179535 0.00220529486777953  11.4831353085193 0.00220529486777953  C 11.3460542693228 0.00220529486777953  11.2145877126053 0.0566603799590596  11.1176567802174 0.153591053000117  L 6.00108659683475 5.27014754656742  L 0.884516413452074 0.153591053000117  C 0.787415039091168 0.0553124265974972  0.655008593052877 0  0.516851374653522 0  C 0.231402242503324 0  0 0.23140162336708  0 0.516849991774062  C 0 0.655022680758654  0.0553252224572227 0.787442594497331  0.153623963270192 0.884546153866583  L 5.27019414665287 6.00110264743389  L 0.153559356848383 11.1176591410012  C 0.0566284244604639 11.2145898140422  0.00217319366950343 11.3460560190098  0.00217319366950343 11.4831366914344  C 0.00217319366950343 11.7685924145023  0.233581398319454 12  0.519037885150228 12  C 0.656118924346782 12  0.787585481064155 11.9455449149087  0.884516413452074 11.8486142418676  L 6.00108659683475 6.73205774830036  L 11.1176567802174 11.8486142418676  C 11.2145877126053 11.9455449149087  11.3460542693228 12  11.4831353085193 12  C 11.76859179535 12  12 11.7685924145023  12 11.4831366914344  C 12 11.3460560190098  11.9455447692092 11.2145898140422  11.8486138368212 11.1176591410012  Z " fill-rule="nonzero" fill="#81b2f8" stroke="none" transform="matrix(1 0 0 1 504 18 )" />
  </g>
</svg>