<?xml version="1.0" encoding="utf-8"?>
<svg version="1.1" xmlns:xlink="http://www.w3.org/1999/xlink" width="6px" height="9px" xmlns="http://www.w3.org/2000/svg">
  <g transform="matrix(1 0 0 1 -501 -426 )">
    <path d="M 5.89690721649484 4.29258517034068  C 5.96563573883162 4.35270541082164  6 4.42184368737475  6 4.5  C 6 4.57815631262525  5.96563573883162 4.64729458917836  5.89690721649484 4.70741482965932  L 1.09278350515464 8.90981963927856  C 1.02405498281787 8.96993987975952  0.945017182130584 9  0.855670103092783 9  C 0.766323024054983 9  0.687285223367698 8.96993987975952  0.618556701030928 8.90981963927856  L 0.103092783505155 8.45891783567134  C 0.0343642611683849 8.39879759519038  0 8.32965931863727  0 8.25150300601202  C 0 8.17334669338677  0.0343642611683849 8.10420841683367  0.103092783505155 8.04408817635271  L 4.15463917525773 4.5  L 0.103092783505155 0.955911823647295  C 0.0343642611683849 0.895791583166332  0 0.826653306613226  0 0.748496993987976  C 0 0.670340681362724  0.0343642611683849 0.601202404809618  0.103092783505155 0.541082164328657  L 0.618556701030928 0.090180360721443  C 0.687285223367698 0.0300601202404807  0.766323024054983 0  0.855670103092783 0  C 0.945017182130584 0  1.02405498281787 0.0300601202404807  1.09278350515464 0.090180360721443  L 5.89690721649484 4.29258517034068  Z " fill-rule="nonzero" fill="#00cc00" stroke="none" transform="matrix(1 0 0 1 501 426 )" />
  </g>
</svg>