<?xml version="1.0" encoding="utf-8"?>
<svg version="1.1" xmlns:xlink="http://www.w3.org/1999/xlink" width="148px" height="43px" xmlns="http://www.w3.org/2000/svg">
  <g transform="matrix(1 0 0 1 -280 -193 )">
    <path d="M 281 197  A 3 3 0 0 1 284 194 L 424 194  A 3 3 0 0 1 427 197 L 427 232  A 3 3 0 0 1 424 235 L 284 235  A 3 3 0 0 1 281 232 L 281 197  Z " fill-rule="nonzero" fill="#ffffff" stroke="none" fill-opacity="0" />
    <path d="M 280.5 197  A 3.5 3.5 0 0 1 284 193.5 L 424 193.5  A 3.5 3.5 0 0 1 427.5 197 L 427.5 232  A 3.5 3.5 0 0 1 424 235.5 L 284 235.5  A 3.5 3.5 0 0 1 280.5 232 L 280.5 197  Z " stroke-width="1" stroke-dasharray="9,4" stroke="#ff3399" fill="none" stroke-dashoffset="0.5" />
  </g>
</svg>