<?xml version="1.0" encoding="utf-8"?>
<svg version="1.1" xmlns:xlink="http://www.w3.org/1999/xlink" width="108px" height="43px" xmlns="http://www.w3.org/2000/svg">
  <g transform="matrix(1 0 0 1 -579 -193 )">
    <path d="M 580 197  A 3 3 0 0 1 583 194 L 683 194  A 3 3 0 0 1 686 197 L 686 232  A 3 3 0 0 1 683 235 L 583 235  A 3 3 0 0 1 580 232 L 580 197  Z " fill-rule="nonzero" fill="#ffffff" stroke="none" fill-opacity="0" />
    <path d="M 579.5 197  A 3.5 3.5 0 0 1 583 193.5 L 683 193.5  A 3.5 3.5 0 0 1 686.5 197 L 686.5 232  A 3.5 3.5 0 0 1 683 235.5 L 583 235.5  A 3.5 3.5 0 0 1 579.5 232 L 579.5 197  Z " stroke-width="1" stroke-dasharray="9,4" stroke="#ff3399" fill="none" stroke-dashoffset="0.5" />
  </g>
</svg>