<?xml version="1.0" encoding="utf-8"?>
<svg version="1.1" xmlns:xlink="http://www.w3.org/1999/xlink" width="219px" height="79px" xmlns="http://www.w3.org/2000/svg">
  <g transform="matrix(1 0 0 1 -1469 -1074 )">
    <path d="M 1470 1078  A 3 3 0 0 1 1473 1075 L 1684 1075  A 3 3 0 0 1 1687 1078 L 1687 1149  A 3 3 0 0 1 1684 1152 L 1473 1152  A 3 3 0 0 1 1470 1149 L 1470 1078  Z " fill-rule="nonzero" fill="#ff3399" stroke="none" fill-opacity="0.0980392156862745" />
    <path d="M 1469.5 1078  A 3.5 3.5 0 0 1 1473 1074.5 L 1684 1074.5  A 3.5 3.5 0 0 1 1687.5 1078 L 1687.5 1149  A 3.5 3.5 0 0 1 1684 1152.5 L 1473 1152.5  A 3.5 3.5 0 0 1 1469.5 1149 L 1469.5 1078  Z " stroke-width="1" stroke-dasharray="9,4" stroke="#ff3399" fill="none" stroke-dashoffset="0.5" />
  </g>
</svg>