<?xml version="1.0" encoding="utf-8"?>
<svg version="1.1" xmlns:xlink="http://www.w3.org/1999/xlink" width="10px" height="10px" xmlns="http://www.w3.org/2000/svg">
  <g transform="matrix(1 0 0 1 -323 -1096 )">
    <path d="M 328 1096  C 330.8 1096  333 1098.2  333 1101  C 333 1103.8  330.8 1106  328 1106  C 325.2 1106  323 1103.8  323 1101  C 323 1098.2  325.2 1096  328 1096  Z " fill-rule="nonzero" fill="#008000" stroke="none" />
    <path d="M 328 1096.5  C 330.52 1096.5  332.5 1098.48  332.5 1101  C 332.5 1103.52  330.52 1105.5  328 1105.5  C 325.48 1105.5  323.5 1103.52  323.5 1101  C 323.5 1098.48  325.48 1096.5  328 1096.5  Z " stroke-width="1" stroke="#008000" fill="none" />
  </g>
</svg>