<?xml version="1.0" encoding="utf-8"?>
<svg version="1.1" xmlns:xlink="http://www.w3.org/1999/xlink" width="126px" height="26px" xmlns="http://www.w3.org/2000/svg">
  <defs>
    <mask fill="white" id="clip341">
      <path d="M 19 14  L 0 0  C 12 1  99 0  99 0  L 126 14  L 99 26  L 0 26  L 19 14  Z " fill-rule="evenodd" />
    </mask>
  </defs>
  <g transform="matrix(1 0 0 1 -521 -1088 )">
    <path d="M 19 14  L 0 0  C 12 1  99 0  99 0  L 126 14  L 99 26  L 0 26  L 19 14  Z " fill-rule="nonzero" fill="#9dcff8" stroke="none" transform="matrix(1 0 0 1 521 1088 )" />
    <path d="M 19 14  L 0 0  C 12 1  99 0  99 0  L 126 14  L 99 26  L 0 26  L 19 14  Z " stroke-width="2" stroke="#9dcff8" fill="none" transform="matrix(1 0 0 1 521 1088 )" mask="url(#clip341)" />
  </g>
</svg>