<?xml version="1.0" encoding="utf-8"?>
<svg version="1.1" xmlns:xlink="http://www.w3.org/1999/xlink" width="10px" height="10px" xmlns="http://www.w3.org/2000/svg">
  <g transform="matrix(1 0 0 1 -445 -1096 )">
    <path d="M 450 1096  C 452.8 1096  455 1098.2  455 1101  C 455 1103.8  452.8 1106  450 1106  C 447.2 1106  445 1103.8  445 1101  C 445 1098.2  447.2 1096  450 1096  Z " fill-rule="nonzero" fill="#cc0000" stroke="none" />
    <path d="M 450 1096.5  C 452.52 1096.5  454.5 1098.48  454.5 1101  C 454.5 1103.52  452.52 1105.5  450 1105.5  C 447.48 1105.5  445.5 1103.52  445.5 1101  C 445.5 1098.48  447.48 1096.5  450 1096.5  Z " stroke-width="1" stroke="#cc0000" fill="none" />
  </g>
</svg>