<?xml version="1.0" encoding="utf-8"?>
<svg version="1.1" xmlns:xlink="http://www.w3.org/1999/xlink" width="10px" height="10px" xmlns="http://www.w3.org/2000/svg">
  <g transform="matrix(1 0 0 1 -702 -1096 )">
    <path d="M 707 1096  C 709.8 1096  712 1098.2  712 1101  C 712 1103.8  709.8 1106  707 1106  C 704.2 1106  702 1103.8  702 1101  C 702 1098.2  704.2 1096  707 1096  Z " fill-rule="nonzero" fill="#b69d3b" stroke="none" />
    <path d="M 707 1096.5  C 709.52 1096.5  711.5 1098.48  711.5 1101  C 711.5 1103.52  709.52 1105.5  707 1105.5  C 704.48 1105.5  702.5 1103.52  702.5 1101  C 702.5 1098.48  704.48 1096.5  707 1096.5  Z " stroke-width="1" stroke="#c69a3e" fill="none" />
  </g>
</svg>