<?xml version="1.0" encoding="utf-8"?>
<svg version="1.1" xmlns:xlink="http://www.w3.org/1999/xlink" width="10px" height="10px" xmlns="http://www.w3.org/2000/svg">
  <g transform="matrix(1 0 0 1 -1216 -1096 )">
    <path d="M 1221 1096  C 1223.8 1096  1226 1098.2  1226 1101  C 1226 1103.8  1223.8 1106  1221 1106  C 1218.2 1106  1216 1103.8  1216 1101  C 1216 1098.2  1218.2 1096  1221 1096  Z " fill-rule="nonzero" fill="#000000" stroke="none" />
    <path d="M 1221 1096.5  C 1223.52 1096.5  1225.5 1098.48  1225.5 1101  C 1225.5 1103.52  1223.52 1105.5  1221 1105.5  C 1218.48 1105.5  1216.5 1103.52  1216.5 1101  C 1216.5 1098.48  1218.48 1096.5  1221 1096.5  Z " stroke-width="1" stroke="#000000" fill="none" />
  </g>
</svg>