<?xml version="1.0" encoding="utf-8"?>
<svg version="1.1" xmlns:xlink="http://www.w3.org/1999/xlink" width="181px" height="33px" xmlns="http://www.w3.org/2000/svg">
  <g transform="matrix(1 0 0 1 -431 -114 )">
    <path d="M 432 118  A 3 3 0 0 1 435 115 L 608 115  A 3 3 0 0 1 611 118 L 611 143  A 3 3 0 0 1 608 146 L 435 146  A 3 3 0 0 1 432 143 L 432 118  Z " fill-rule="nonzero" fill="#ff3399" stroke="none" fill-opacity="0.0980392156862745" />
    <path d="M 431.5 118  A 3.5 3.5 0 0 1 435 114.5 L 608 114.5  A 3.5 3.5 0 0 1 611.5 118 L 611.5 143  A 3.5 3.5 0 0 1 608 146.5 L 435 146.5  A 3.5 3.5 0 0 1 431.5 143 L 431.5 118  Z " stroke-width="1" stroke-dasharray="9,4" stroke="#ff3399" fill="none" stroke-dashoffset="0.5" />
  </g>
</svg>