<?xml version="1.0" encoding="utf-8"?>
<svg version="1.1" xmlns:xlink="http://www.w3.org/1999/xlink" width="299px" height="33px" xmlns="http://www.w3.org/2000/svg">
  <defs>
    <mask fill="white" id="clip231">
      <path d="M 0 29  L 0 4  C 0 1.76000000000001  2.06368627450979 0  4.69019607843137 0  L 294.309803921569 0  C 296.93631372549 0  299 1.76000000000001  299 4  L 299 29  C 299 31.24  296.93631372549 33  294.309803921569 33  L 23.237789661319 33  L 4.69019607843137 33  C 2.06368627450979 33  0 31.24  0 29  Z " fill-rule="evenodd" />
    </mask>
  </defs>
  <g transform="matrix(1 0 0 1 -840 -114 )">
    <path d="M 0 29  L 0 4  C 0 1.76000000000001  2.06368627450979 0  4.69019607843137 0  L 294.309803921569 0  C 296.93631372549 0  299 1.76000000000001  299 4  L 299 29  C 299 31.24  296.93631372549 33  294.309803921569 33  L 23.237789661319 33  L 4.69019607843137 33  C 2.06368627450979 33  0 31.24  0 29  Z " fill-rule="nonzero" fill="#ff3399" stroke="none" fill-opacity="0.0980392156862745" transform="matrix(1 0 0 1 840 114 )" />
    <path d="M 0 29  L 0 4  C 0 1.76000000000001  2.06368627450979 0  4.69019607843137 0  L 294.309803921569 0  C 296.93631372549 0  299 1.76000000000001  299 4  L 299 29  C 299 31.24  296.93631372549 33  294.309803921569 33  L 23.237789661319 33  L 4.69019607843137 33  C 2.06368627450979 33  0 31.24  0 29  Z " stroke-width="2" stroke-dasharray="9,4" stroke="#ff3399" fill="none" transform="matrix(1 0 0 1 840 114 )" mask="url(#clip231)" />
  </g>
</svg>