<?xml version="1.0" encoding="utf-8"?>
<svg version="1.1" xmlns:xlink="http://www.w3.org/1999/xlink" width="24px" height="24px" xmlns="http://www.w3.org/2000/svg">
  <defs>
    <filter x="2012px" y="593px" width="24px" height="24px" filterUnits="userSpaceOnUse" id="filter224">
      <feOffset dx="0" dy="1" in="SourceAlpha" result="shadowOffsetInner" />
      <feGaussianBlur stdDeviation="2.5" in="shadowOffsetInner" result="shadowGaussian" />
      <feComposite in2="shadowGaussian" operator="atop" in="SourceAlpha" result="shadowComposite" />
      <feColorMatrix type="matrix" values="0 0 0 0 0.207843137254902  0 0 0 0 0.207843137254902  0 0 0 0 0.207843137254902  0 0 0 0.349019607843137 0  " in="shadowComposite" />
    </filter>
    <g id="widget225">
      <path d="M 2024 597.5  C 2027.64 597.5  2030.5 600.36  2030.5 604  C 2030.5 607.64  2027.64 610.5  2024 610.5  C 2020.36 610.5  2017.5 607.64  2017.5 604  C 2017.5 600.36  2020.36 597.5  2024 597.5  Z " fill-rule="nonzero" fill="#ffffff" stroke="none" />
      <path d="M 2024 597.5  C 2027.64 597.5  2030.5 600.36  2030.5 604  C 2030.5 607.64  2027.64 610.5  2024 610.5  C 2020.36 610.5  2017.5 607.64  2017.5 604  C 2017.5 600.36  2020.36 597.5  2024 597.5  Z " stroke-width="1" stroke="#b2b2b2" fill="none" stroke-opacity="0.349019607843137" />
    </g>
  </defs>
  <g transform="matrix(1 0 0 1 -2012 -593 )">
    <use xlink:href="#widget225" filter="url(#filter224)" />
    <use xlink:href="#widget225" />
  </g>
</svg>