<?xml version="1.0" encoding="utf-8"?>
<svg version="1.1" xmlns:xlink="http://www.w3.org/1999/xlink" width="12px" height="12px" viewBox="161 409  12 12" xmlns="http://www.w3.org/2000/svg">
  <path d="M 167 409  C 170.36 409  173 411.64  173 415  C 173 418.36  170.36 421  167 421  C 163.64 421  161 418.36  161 415  C 161 411.64  163.64 409  167 409  Z " fill-rule="nonzero" fill="#ffffff" stroke="none" />
  <path d="M 167 409.5  C 170.08 409.5  172.5 411.92  172.5 415  C 172.5 418.08  170.08 420.5  167 420.5  C 163.92 420.5  161.5 418.08  161.5 415  C 161.5 411.92  163.92 409.5  167 409.5  Z " stroke-width="1" stroke="#797979" fill="none" />
  <path d="M 167 418  C 165.32 418  164 416.68  164 415  C 164 413.32  165.32 412  167 412  C 168.68 412  170 413.32  170 415  C 170 416.68  168.68 418  167 418  " fill-rule="nonzero" fill="#797979" stroke="none" />
</svg>