<?xml version="1.0" encoding="utf-8"?>
<svg version="1.1" xmlns:xlink="http://www.w3.org/1999/xlink" width="120px" height="32px" xmlns="http://www.w3.org/2000/svg">
  <g transform="matrix(1 0 0 1 -534 -74 )">
    <path d="M 535 78  A 3 3 0 0 1 538 75 L 650 75  A 3 3 0 0 1 653 78 L 653 102  A 3 3 0 0 1 650 105 L 538 105  A 3 3 0 0 1 535 102 L 535 78  Z " fill-rule="nonzero" fill="#3399ff" stroke="none" />
    <path d="M 534.5 78  A 3.5 3.5 0 0 1 538 74.5 L 650 74.5  A 3.5 3.5 0 0 1 653.5 78 L 653.5 102  A 3.5 3.5 0 0 1 650 105.5 L 538 105.5  A 3.5 3.5 0 0 1 534.5 102 L 534.5 78  Z " stroke-width="1" stroke="#cccccc" fill="none" stroke-opacity="0.2" />
  </g>
</svg>