<?xml version="1.0" encoding="utf-8"?>
<svg version="1.1" xmlns:xlink="http://www.w3.org/1999/xlink" width="12px" height="12px" viewBox="255 357  12 12" xmlns="http://www.w3.org/2000/svg">
  <path d="M 261 357  C 264.36 357  267 359.64  267 363  C 267 366.36  264.36 369  261 369  C 257.64 369  255 366.36  255 363  C 255 359.64  257.64 357  261 357  Z " fill-rule="nonzero" fill="#ffffff" stroke="none" />
  <path d="M 261 357.5  C 264.08 357.5  266.5 359.92  266.5 363  C 266.5 366.08  264.08 368.5  261 368.5  C 257.92 368.5  255.5 366.08  255.5 363  C 255.5 359.92  257.92 357.5  261 357.5  Z " stroke-width="1" stroke="#797979" fill="none" />
  <path d="M 261 366  C 259.32 366  258 364.68  258 363  C 258 361.32  259.32 360  261 360  C 262.68 360  264 361.32  264 363  C 264 364.68  262.68 366  261 366  " fill-rule="nonzero" fill="#797979" stroke="none" />
</svg>