<?xml version="1.0" encoding="utf-8"?>
<svg version="1.1" xmlns:xlink="http://www.w3.org/1999/xlink" width="20px" height="20px" xmlns="http://www.w3.org/2000/svg">
  <g transform="matrix(1 0 0 1 -371 -1376 )">
    <path d="M 381 1380  C 384.36 1380  387 1382.64  387 1386  C 387 1389.36  384.36 1392  381 1392  C 377.64 1392  375 1389.36  375 1386  C 375 1382.64  377.64 1380  381 1380  Z " fill-rule="nonzero" fill="#ffffff" stroke="none" />
    <path d="M 381 1378.5  C 385.2 1378.5  388.5 1381.8  388.5 1386  C 388.5 1390.2  385.2 1393.5  381 1393.5  C 376.8 1393.5  373.5 1390.2  373.5 1386  C 373.5 1381.8  376.8 1378.5  381 1378.5  Z " stroke-width="5" stroke="#5cc870" fill="none" />
  </g>
</svg>