<?xml version="1.0" encoding="utf-8"?>
<svg version="1.1" xmlns:xlink="http://www.w3.org/1999/xlink" width="157px" height="259px" xmlns="http://www.w3.org/2000/svg">
  <defs>
    <filter x="242px" y="144px" width="157px" height="259px" filterUnits="userSpaceOnUse" id="filter334">
      <feOffset dx="2" dy="2" in="SourceAlpha" result="shadowOffsetInner" />
      <feGaussianBlur stdDeviation="2.5" in="shadowOffsetInner" result="shadowGaussian" />
      <feComposite in2="shadowGaussian" operator="atop" in="SourceAlpha" result="shadowComposite" />
      <feColorMatrix type="matrix" values="0 0 0 0 0.8  0 0 0 0 0.8  0 0 0 0 0.8  0 0 0 0.349019607843137 0  " in="shadowComposite" />
    </filter>
    <g id="widget335">
      <path d="M 246 151  A 3 3 0 0 1 249 148 L 388 148  A 3 3 0 0 1 391 151 L 391 392  A 3 3 0 0 1 388 395 L 249 395  A 3 3 0 0 1 246 392 L 246 151  Z " fill-rule="nonzero" fill="#ffffff" stroke="none" />
      <path d="M 245.5 151  A 3.5 3.5 0 0 1 249 147.5 L 388 147.5  A 3.5 3.5 0 0 1 391.5 151 L 391.5 392  A 3.5 3.5 0 0 1 388 395.5 L 249 395.5  A 3.5 3.5 0 0 1 245.5 392 L 245.5 151  Z " stroke-width="1" stroke="#cccccc" fill="none" stroke-opacity="0.349019607843137" />
    </g>
  </defs>
  <g transform="matrix(1 0 0 1 -242 -144 )">
    <use xlink:href="#widget335" filter="url(#filter334)" />
    <use xlink:href="#widget335" />
  </g>
</svg>