<?xml version="1.0" encoding="utf-8"?>
<svg version="1.1" xmlns:xlink="http://www.w3.org/1999/xlink" width="12px" height="12px" viewBox="255 266  12 12" xmlns="http://www.w3.org/2000/svg">
  <path d="M 261 266  C 264.36 266  267 268.64  267 272  C 267 275.36  264.36 278  261 278  C 257.64 278  255 275.36  255 272  C 255 268.64  257.64 266  261 266  Z " fill-rule="nonzero" fill="#ffffff" stroke="none" />
  <path d="M 261 266.5  C 264.08 266.5  266.5 268.92  266.5 272  C 266.5 275.08  264.08 277.5  261 277.5  C 257.92 277.5  255.5 275.08  255.5 272  C 255.5 268.92  257.92 266.5  261 266.5  Z " stroke-width="1" stroke="#797979" fill="none" />
  <path d="M 261 275  C 259.32 275  258 273.68  258 272  C 258 270.32  259.32 269  261 269  C 262.68 269  264 270.32  264 272  C 264 273.68  262.68 275  261 275  " fill-rule="nonzero" fill="#797979" stroke="none" />
</svg>