<?xml version="1.0" encoding="utf-8"?>
<svg version="1.1" xmlns:xlink="http://www.w3.org/1999/xlink" width="12px" height="12px" viewBox="255 206  12 12" xmlns="http://www.w3.org/2000/svg">
  <path d="M 261 206  C 264.36 206  267 208.64  267 212  C 267 215.36  264.36 218  261 218  C 257.64 218  255 215.36  255 212  C 255 208.64  257.64 206  261 206  Z " fill-rule="nonzero" fill="#ffffff" stroke="none" />
  <path d="M 261 206.5  C 264.08 206.5  266.5 208.92  266.5 212  C 266.5 215.08  264.08 217.5  261 217.5  C 257.92 217.5  255.5 215.08  255.5 212  C 255.5 208.92  257.92 206.5  261 206.5  Z " stroke-width="1" stroke="#797979" fill="none" />
  <path d="M 261 215  C 259.32 215  258 213.68  258 212  C 258 210.32  259.32 209  261 209  C 262.68 209  264 210.32  264 212  C 264 213.68  262.68 215  261 215  " fill-rule="nonzero" fill="#797979" stroke="none" />
</svg>