<?xml version="1.0" encoding="utf-8"?>
<svg version="1.1" xmlns:xlink="http://www.w3.org/1999/xlink" width="305px" height="30px" xmlns="http://www.w3.org/2000/svg">
  <g transform="matrix(1 0 0 1 -1450 -1183 )">
    <path d="M 1451 1187  A 3 3 0 0 1 1454 1184 L 1751 1184  A 3 3 0 0 1 1754 1187 L 1754 1209  A 3 3 0 0 1 1751 1212 L 1454 1212  A 3 3 0 0 1 1451 1209 L 1451 1187  Z " fill-rule="nonzero" fill="#ff3399" stroke="none" fill-opacity="0.0980392156862745" />
    <path d="M 1450.5 1187  A 3.5 3.5 0 0 1 1454 1183.5 L 1751 1183.5  A 3.5 3.5 0 0 1 1754.5 1187 L 1754.5 1209  A 3.5 3.5 0 0 1 1751 1212.5 L 1454 1212.5  A 3.5 3.5 0 0 1 1450.5 1209 L 1450.5 1187  Z " stroke-width="1" stroke-dasharray="9,4" stroke="#ff3399" fill="none" stroke-dashoffset="0.5" />
  </g>
</svg>