<?xml version="1.0" encoding="utf-8"?>
<svg version="1.1" xmlns:xlink="http://www.w3.org/1999/xlink" width="274px" height="404px" xmlns="http://www.w3.org/2000/svg">
  <defs>
    <filter x="1151px" y="541px" width="274px" height="404px" filterUnits="userSpaceOnUse" id="filter320">
      <feOffset dx="5" dy="5" in="SourceAlpha" result="shadowOffsetInner" />
      <feGaussianBlur stdDeviation="2.5" in="shadowOffsetInner" result="shadowGaussian" />
      <feComposite in2="shadowGaussian" operator="atop" in="SourceAlpha" result="shadowComposite" />
      <feColorMatrix type="matrix" values="0 0 0 0 0.8  0 0 0 0 0.8  0 0 0 0 0.8  0 0 0 0.349019607843137 0  " in="shadowComposite" />
    </filter>
    <g id="widget321">
      <path d="M 1152 545  A 3 3 0 0 1 1155 542 L 1411 542  A 3 3 0 0 1 1414 545 L 1414 931  A 3 3 0 0 1 1411 934 L 1155 934  A 3 3 0 0 1 1152 931 L 1152 545  Z " fill-rule="nonzero" fill="#ffffff" stroke="none" />
      <path d="M 1151.5 545  A 3.5 3.5 0 0 1 1155 541.5 L 1411 541.5  A 3.5 3.5 0 0 1 1414.5 545 L 1414.5 931  A 3.5 3.5 0 0 1 1411 934.5 L 1155 934.5  A 3.5 3.5 0 0 1 1151.5 931 L 1151.5 545  Z " stroke-width="1" stroke="#cccccc" fill="none" stroke-opacity="0.2" />
    </g>
  </defs>
  <g transform="matrix(1 0 0 1 -1151 -541 )">
    <use xlink:href="#widget321" filter="url(#filter320)" />
    <use xlink:href="#widget321" />
  </g>
</svg>