<?xml version="1.0" encoding="utf-8"?>
<svg version="1.1" xmlns:xlink="http://www.w3.org/1999/xlink" width="254px" height="86px" xmlns="http://www.w3.org/2000/svg">
  <defs>
    <filter x="901px" y="188px" width="254px" height="86px" filterUnits="userSpaceOnUse" id="filter309">
      <feOffset dx="2" dy="2" in="SourceAlpha" result="shadowOffsetInner" />
      <feGaussianBlur stdDeviation="2.5" in="shadowOffsetInner" result="shadowGaussian" />
      <feComposite in2="shadowGaussian" operator="atop" in="SourceAlpha" result="shadowComposite" />
      <feColorMatrix type="matrix" values="0 0 0 0 0.8  0 0 0 0 0.8  0 0 0 0 0.8  0 0 0 0.349019607843137 0  " in="shadowComposite" />
    </filter>
    <g id="widget310">
      <path d="M 905 195  A 3 3 0 0 1 908 192 L 1144 192  A 3 3 0 0 1 1147 195 L 1147 263  A 3 3 0 0 1 1144 266 L 908 266  A 3 3 0 0 1 905 263 L 905 195  Z " fill-rule="nonzero" fill="#ffffff" stroke="none" />
      <path d="M 904.5 195  A 3.5 3.5 0 0 1 908 191.5 L 1144 191.5  A 3.5 3.5 0 0 1 1147.5 195 L 1147.5 263  A 3.5 3.5 0 0 1 1144 266.5 L 908 266.5  A 3.5 3.5 0 0 1 904.5 263 L 904.5 195  Z " stroke-width="1" stroke="#cccccc" fill="none" stroke-opacity="0.349019607843137" />
    </g>
  </defs>
  <g transform="matrix(1 0 0 1 -901 -188 )">
    <use xlink:href="#widget310" filter="url(#filter309)" />
    <use xlink:href="#widget310" />
  </g>
</svg>