<?xml version="1.0" encoding="utf-8"?>
<svg version="1.1" xmlns:xlink="http://www.w3.org/1999/xlink" width="376px" height="100px" xmlns="http://www.w3.org/2000/svg">
  <g transform="matrix(1 0 0 1 -1513 -249 )">
    <path d="M 1514 253  A 3 3 0 0 1 1517 250 L 1885 250  A 3 3 0 0 1 1888 253 L 1888 345  A 3 3 0 0 1 1885 348 L 1517 348  A 3 3 0 0 1 1514 345 L 1514 253  Z " fill-rule="nonzero" fill="#ff3399" stroke="none" fill-opacity="0.0980392156862745" />
    <path d="M 1513.5 253  A 3.5 3.5 0 0 1 1517 249.5 L 1885 249.5  A 3.5 3.5 0 0 1 1888.5 253 L 1888.5 345  A 3.5 3.5 0 0 1 1885 348.5 L 1517 348.5  A 3.5 3.5 0 0 1 1513.5 345 L 1513.5 253  Z " stroke-width="1" stroke-dasharray="9,4" stroke="#ff3399" fill="none" stroke-dashoffset="0.5" />
  </g>
</svg>