<?xml version="1.0" encoding="utf-8"?>
<svg version="1.1" xmlns:xlink="http://www.w3.org/1999/xlink" width="100px" height="60px" xmlns="http://www.w3.org/2000/svg">
  <defs>
    <mask fill="white" id="clip295">
      <path d="M 86.4077669902912 30  C 86.3408426968369 13.3930788492937  99.5145631067961 0.245901639344268  99.5145631067961 0.245901639344268  L 14.0776699029126 0.245901639344268  C 14.0776699029126 0.245901639344268  0.903819672164516 13.393752381691  0.970873786407765 30  C 1.03726622064433 46.442379641541  14.0776699029126 59.2622950819672  14.0776699029126 59.2622950819672  L 99.5145631067961 59.2622950819672  C 99.5145631067961 59.2622950819672  86.4740254918355 46.4417082932674  86.4077669902912 30  Z " fill-rule="evenodd" />
    </mask>
  </defs>
  <g transform="matrix(1 0 0 1 -895 -805 )">
    <path d="M 86.4077669902912 30  C 86.3408426968369 13.3930788492937  99.5145631067961 0.245901639344268  99.5145631067961 0.245901639344268  L 14.0776699029126 0.245901639344268  C 14.0776699029126 0.245901639344268  0.903819672164516 13.393752381691  0.970873786407765 30  C 1.03726622064433 46.442379641541  14.0776699029126 59.2622950819672  14.0776699029126 59.2622950819672  L 99.5145631067961 59.2622950819672  C 99.5145631067961 59.2622950819672  86.4740254918355 46.4417082932674  86.4077669902912 30  Z " fill-rule="nonzero" fill="#ffffff" stroke="none" transform="matrix(1 0 0 1 895 805 )" />
    <path d="M 86.4077669902912 30  C 86.3408426968369 13.3930788492937  99.5145631067961 0.245901639344268  99.5145631067961 0.245901639344268  L 14.0776699029126 0.245901639344268  C 14.0776699029126 0.245901639344268  0.903819672164516 13.393752381691  0.970873786407765 30  C 1.03726622064433 46.442379641541  14.0776699029126 59.2622950819672  14.0776699029126 59.2622950819672  L 99.5145631067961 59.2622950819672  C 99.5145631067961 59.2622950819672  86.4740254918355 46.4417082932674  86.4077669902912 30  Z " stroke-width="2" stroke="#797979" fill="none" transform="matrix(1 0 0 1 895 805 )" mask="url(#clip295)" />
  </g>
</svg>