<?xml version="1.0" encoding="utf-8"?>
<svg version="1.1" xmlns:xlink="http://www.w3.org/1999/xlink" width="127px" height="60px" xmlns="http://www.w3.org/2000/svg">
  <defs>
    <mask fill="white" id="clip296">
      <path d="M 109.601941747573 30  C 109.516278651951 13.3930788492937  126.378640776699 0.245901639344311  126.378640776699 0.245901639344311  L 17.0194174757281 0.245901639344311  C 17.0194174757281 0.245901639344311  0.156889180370626 13.393752381691  0.242718446601884 30  C 0.327700762424683 46.442379641541  17.0194174757281 59.2622950819673  17.0194174757281 59.2622950819673  L 126.378640776699 59.2622950819673  C 126.378640776699 59.2622950819673  109.686752629549 46.4417082932673  109.601941747573 30  Z " fill-rule="evenodd" />
    </mask>
  </defs>
  <g transform="matrix(1 0 0 1 -913 -1082 )">
    <path d="M 109.601941747573 30  C 109.516278651951 13.3930788492937  126.378640776699 0.245901639344311  126.378640776699 0.245901639344311  L 17.0194174757281 0.245901639344311  C 17.0194174757281 0.245901639344311  0.156889180370626 13.393752381691  0.242718446601884 30  C 0.327700762424683 46.442379641541  17.0194174757281 59.2622950819673  17.0194174757281 59.2622950819673  L 126.378640776699 59.2622950819673  C 126.378640776699 59.2622950819673  109.686752629549 46.4417082932673  109.601941747573 30  Z " fill-rule="nonzero" fill="#ffffff" stroke="none" transform="matrix(1 0 0 1 913 1082 )" />
    <path d="M 109.601941747573 30  C 109.516278651951 13.3930788492937  126.378640776699 0.245901639344311  126.378640776699 0.245901639344311  L 17.0194174757281 0.245901639344311  C 17.0194174757281 0.245901639344311  0.156889180370626 13.393752381691  0.242718446601884 30  C 0.327700762424683 46.442379641541  17.0194174757281 59.2622950819673  17.0194174757281 59.2622950819673  L 126.378640776699 59.2622950819673  C 126.378640776699 59.2622950819673  109.686752629549 46.4417082932673  109.601941747573 30  Z " stroke-width="2" stroke="#797979" fill="none" transform="matrix(1 0 0 1 913 1082 )" mask="url(#clip296)" />
  </g>
</svg>