<?xml version="1.0" encoding="utf-8"?>
<svg version="1.1" xmlns:xlink="http://www.w3.org/1999/xlink" width="11px" height="10px" xmlns="http://www.w3.org/2000/svg">
  <g transform="matrix(1 0 0 1 -123 -197 )">
    <path d="M 0.83732524671052 9.23062294407896  L 9.92822779605262 9.23062294407896  C 9.9291331829811 9.23061609103331  9.93003859260307 9.23061266447371  9.93094400546715 9.23061266447371  C 10.1291374739766 9.23061266447371  10.289805025204 9.39128021570116  10.289805025204 9.58947368421053  C 10.289805025204 9.78766715271991  10.1291374739766 9.94833470394735  9.93094400546715 9.94833470394735  C 9.93003859260307 9.94833470394735  9.9291331829811 9.94833127738775  9.92822779605262 9.9483244243421  L 0.83732524671052 9.9483244243421  C 0.836419859782154 9.94833127738775  0.835514450159963 9.94833470394735  0.834609037295877 9.94833470394735  C 0.63641556878656 9.94833470394735  0.475748017559113 9.78766715271991  0.475748017559113 9.58947368421053  C 0.475748017559113 9.39128021570116  0.63641556878656 9.23061266447371  0.834609037295877 9.23061266447371  C 0.835514450159963 9.23061266447371  0.836419859782154 9.23061609103331  0.83732524671052 9.23062294407896  Z M 10.1832545230262 2.09713199013157  C 10.1832545230262 2.33325452302631  10.0911492598684 2.55526315789473  9.92416735197367 2.72224506578948  L 4.22918379934208 8.41745476973682  L 2.00909745065792 8.64425370065788  L 2.23612253289468 6.42416735197367  L 7.18803453947362 1.47200863486842  L 7.93109580592102 0.728947368421075  C 8.26508018092102 0.394973273026324  8.84736842105258 0.394973273026324  9.18134251644733 0.728947368421075  L 9.92416735197367 1.47200863486842  C 10.0905408902589 1.63742550046703  10.1838332333424 1.86252048410427  10.1832545230262 2.09713199013157  Z M 2.9239309210526 6.75095600328945  L 2.81267475328946 7.84066611842104  L 3.90214843749993 7.72943050986839  L 8.41986019736839 3.21148231907893  L 7.44185855263152 2.23325452302629  L 2.9239309210526 6.75095600328945  Z M 8.55622944078948 1.18780838815792  C 8.51204606384476 1.18766628989243  8.46964996151826 1.20524308445522  8.43852796052624 1.23660567434212  L 7.94929070723686 1.7256064967105  L 8.92751850328943 2.7040707236842  L 9.41651932565787 2.21483347039475  C 9.48149424234725 2.14981639049819  9.48149424234725 2.04444758976496  9.41651932565787 1.97943050986839  L 8.6739309210526 1.23660567434212  C 8.64277997886188 1.20528498670268  8.60040363434132 1.18771268244211  8.55622944078948 1.18779810855261  Z " fill-rule="nonzero" fill="#ffffff" stroke="none" transform="matrix(1 0 0 1 123 197 )" />
  </g>
</svg>