<?xml version="1.0" encoding="utf-8"?>
<svg version="1.1" xmlns:xlink="http://www.w3.org/1999/xlink" width="8px" height="8px" xmlns="http://www.w3.org/2000/svg">
  <g transform="matrix(1 0 0 1 -203 -197 )">
    <path d="M 4 5.061  L 4 5.06  L 6.474 7.534  C 6.61456473961496 7.67456473961496  6.80521143884508 7.75353318805774  7.004 7.75353318805774  C 7.41795574925635 7.75353318805774  7.75353318805774 7.41795574925635  7.75353318805774 7.004  C 7.75353318805774 6.80521143884508  7.67456473961496 6.61456473961496  7.534 6.474  L 5.061 4  L 7.534 1.526  C 7.67456473961496 1.38543526038504  7.75353318805774 1.19478856115492  7.75353318805774 0.996  C 7.75353318805774 0.582044250743654  7.41795574925635 0.24646681194226  7.004 0.24646681194226  C 6.80521143884508 0.24646681194226  6.61456473961496 0.325435260385042  6.474 0.466  L 4 2.939  L 1.526 0.466  C 1.38543526038504 0.325435260385042  1.19478856115492 0.24646681194226  0.996 0.24646681194226  C 0.582044250743654 0.24646681194226  0.24646681194226 0.582044250743654  0.24646681194226 0.996  C 0.24646681194226 1.19478856115492  0.325435260385042 1.38543526038504  0.466 1.526  L 2.939 4  L 0.466 6.474  C 0.325435260385042 6.61456473961496  0.24646681194226 6.80521143884508  0.24646681194226 7.004  C 0.24646681194226 7.41795574925635  0.582044250743654 7.75353318805774  0.996 7.75353318805774  C 1.19478856115492 7.75353318805774  1.38543526038504 7.67456473961496  1.526 7.534  L 4 5.061  Z " fill-rule="nonzero" fill="#d81e06" stroke="none" transform="matrix(1 0 0 1 203 197 )" />
  </g>
</svg>