<?xml version="1.0" encoding="utf-8"?>
<svg version="1.1" xmlns:xlink="http://www.w3.org/1999/xlink" width="9px" height="10px" xmlns="http://www.w3.org/2000/svg">
  <g transform="matrix(1 0 0 1 -279 -196 )">
    <path d="M 8.07820941600215 8.68536146128119  C 8.41780293285314 8.68536146128119  8.695652173913 8.96321070234112  8.695652173913 9.30280421919218  C 8.695652173913 9.64411285816507  8.41780293285314 9.9211045331393  8.07820941600215 9.9211045331393  L 0.665466086876108 9.9211045331393  C 0.325047460724477 9.91969491410057  0.0494329480039255 9.64408040138002  0.0480233289651437 9.30366177522831  C 0.0480233289651437 8.96406825837727  0.325015013988889 8.68621901731731  0.665466086876108 8.68621901731731  L 8.07820941600215 8.68621901731731  Z M 4.37269531250001 0.0282994597375819  L 4.37183774641431 0.0274419037014297  C 4.71228881930153 0.0274419037014297  4.98928050432528 0.306148700797536  4.98928050432528 0.644884661612394  L 4.98928050432528 5.34431009012414  L 6.59377411885771 3.74067404167735  C 6.83545959720578 3.5010909885273  7.22508409209513 3.5010909885273  7.46676957044315 3.74067404167735  C 7.70688619516977 3.98079066640406  7.70688619516977 4.37441042457229  7.46676957044315 4.61366949326279  L 4.81090815538983 7.27038847440184  C 4.69491266066052 7.38625027971889  4.53749969812338 7.45106738194002  4.37355286853619 7.45047594545923  C 4.20875291473499 7.45156365652772  4.05035715719299 7.38672328794328  3.9336249035245 7.27038847440184  L 1.27776348847118 4.61366949326279  C 1.03751337113101 4.37159005984196  1.03751337113101 3.98103835297636  1.27776348847118 3.73895891955559  C 1.5194489668192 3.4993758664055  1.90907346170866 3.4993758664055  2.15075894005662 3.73895891955559  L 3.75439498850335 5.34345253408799  L 3.75439498850335 0.645742217648547  C 3.75439498850335 0.305291144761384  4.03224422956328 0.0282994597375819  4.37269531250001 0.0282994597375819  Z " fill-rule="nonzero" fill="#ffffff" stroke="none" transform="matrix(1 0 0 1 279 196 )" />
  </g>
</svg>