<?xml version="1.0" encoding="utf-8"?>
<svg version="1.1" xmlns:xlink="http://www.w3.org/1999/xlink" width="442px" height="93px" xmlns="http://www.w3.org/2000/svg">
  <g transform="matrix(1 0 0 1 -567 -648 )">
    <path d="M 568 652  A 3 3 0 0 1 571 649 L 1005 649  A 3 3 0 0 1 1008 652 L 1008 737  A 3 3 0 0 1 1005 740 L 571 740  A 3 3 0 0 1 568 737 L 568 652  Z " fill-rule="nonzero" fill="#ff3399" stroke="none" fill-opacity="0.0980392156862745" />
    <path d="M 567.5 652  A 3.5 3.5 0 0 1 571 648.5 L 1005 648.5  A 3.5 3.5 0 0 1 1008.5 652 L 1008.5 737  A 3.5 3.5 0 0 1 1005 740.5 L 571 740.5  A 3.5 3.5 0 0 1 567.5 737 L 567.5 652  Z " stroke-width="1" stroke-dasharray="9,4" stroke="#ff3399" fill="none" stroke-dashoffset="0.5" />
  </g>
</svg>