<?xml version="1.0" encoding="utf-8"?>
<svg version="1.1" xmlns:xlink="http://www.w3.org/1999/xlink" width="126px" height="66px" xmlns="http://www.w3.org/2000/svg">
  <g transform="matrix(1 0 0 1 -1011 -210 )">
    <path d="M 1012 214  A 3 3 0 0 1 1015 211 L 1133 211  A 3 3 0 0 1 1136 214 L 1136 272  A 3 3 0 0 1 1133 275 L 1015 275  A 3 3 0 0 1 1012 272 L 1012 214  Z " fill-rule="nonzero" fill="#ffffff" stroke="none" fill-opacity="0" />
    <path d="M 1011.5 214  A 3.5 3.5 0 0 1 1015 210.5 L 1133 210.5  A 3.5 3.5 0 0 1 1136.5 214 L 1136.5 272  A 3.5 3.5 0 0 1 1133 275.5 L 1015 275.5  A 3.5 3.5 0 0 1 1011.5 272 L 1011.5 214  Z " stroke-width="1" stroke-dasharray="9,4" stroke="#ff3399" fill="none" stroke-dashoffset="0.5" />
  </g>
</svg>