<?xml version="1.0" encoding="utf-8"?>
<svg version="1.1" xmlns:xlink="http://www.w3.org/1999/xlink" width="620px" height="43px" xmlns="http://www.w3.org/2000/svg">
  <g transform="matrix(1 0 0 1 -517 -64 )">
    <path d="M 518 68  A 3 3 0 0 1 521 65 L 1133 65  A 3 3 0 0 1 1136 68 L 1136 103  A 3 3 0 0 1 1133 106 L 521 106  A 3 3 0 0 1 518 103 L 518 68  Z " fill-rule="nonzero" fill="#ff3399" stroke="none" fill-opacity="0.0980392156862745" />
    <path d="M 517.5 68  A 3.5 3.5 0 0 1 521 64.5 L 1133 64.5  A 3.5 3.5 0 0 1 1136.5 68 L 1136.5 103  A 3.5 3.5 0 0 1 1133 106.5 L 521 106.5  A 3.5 3.5 0 0 1 517.5 103 L 517.5 68  Z " stroke-width="1" stroke-dasharray="9,4" stroke="#ff3399" fill="none" stroke-dashoffset="0.5" />
  </g>
</svg>