<?xml version="1.0" encoding="utf-8"?>
<svg version="1.1" xmlns:xlink="http://www.w3.org/1999/xlink" width="311px" height="43px" xmlns="http://www.w3.org/2000/svg">
  <g transform="matrix(1 0 0 1 -35 -682 )">
    <path d="M 36 686  A 3 3 0 0 1 39 683 L 342 683  A 3 3 0 0 1 345 686 L 345 721  A 3 3 0 0 1 342 724 L 39 724  A 3 3 0 0 1 36 721 L 36 686  Z " fill-rule="nonzero" fill="#ffffff" stroke="none" fill-opacity="0.0980392156862745" />
    <path d="M 35.5 686  A 3.5 3.5 0 0 1 39 682.5 L 342 682.5  A 3.5 3.5 0 0 1 345.5 686 L 345.5 721  A 3.5 3.5 0 0 1 342 724.5 L 39 724.5  A 3.5 3.5 0 0 1 35.5 721 L 35.5 686  Z " stroke-width="1" stroke-dasharray="9,4" stroke="#ff3399" fill="none" stroke-dashoffset="0.5" />
  </g>
</svg>