<?xml version="1.0" encoding="utf-8"?>
<svg version="1.1" xmlns:xlink="http://www.w3.org/1999/xlink" width="372px" height="100px" xmlns="http://www.w3.org/2000/svg">
  <g transform="matrix(1 0 0 1 -1473 -967 )">
    <path d="M 1474 971  A 3 3 0 0 1 1477 968 L 1841 968  A 3 3 0 0 1 1844 971 L 1844 1063  A 3 3 0 0 1 1841 1066 L 1477 1066  A 3 3 0 0 1 1474 1063 L 1474 971  Z " fill-rule="nonzero" fill="#ff3399" stroke="none" fill-opacity="0.0980392156862745" />
    <path d="M 1473.5 971  A 3.5 3.5 0 0 1 1477 967.5 L 1841 967.5  A 3.5 3.5 0 0 1 1844.5 971 L 1844.5 1063  A 3.5 3.5 0 0 1 1841 1066.5 L 1477 1066.5  A 3.5 3.5 0 0 1 1473.5 1063 L 1473.5 971  Z " stroke-width="1" stroke-dasharray="9,4" stroke="#ff3399" fill="none" stroke-dashoffset="0.5" />
  </g>
</svg>