<?xml version="1.0" encoding="utf-8"?>
<svg version="1.1" xmlns:xlink="http://www.w3.org/1999/xlink" width="32px" height="32px" xmlns="http://www.w3.org/2000/svg">
  <g transform="matrix(1 0 0 1 -416 -60 )">
    <path d="M 432 60.5  C 440.68 60.5  447.5 67.32  447.5 76  C 447.5 84.68  440.68 91.5  432 91.5  C 423.32 91.5  416.5 84.68  416.5 76  C 416.5 67.32  423.32 60.5  432 60.5  Z " fill-rule="nonzero" fill="#b0b0b0" stroke="none" />
    <path d="M 432 60.5  C 440.68 60.5  447.5 67.32  447.5 76  C 447.5 84.68  440.68 91.5  432 91.5  C 423.32 91.5  416.5 84.68  416.5 76  C 416.5 67.32  423.32 60.5  432 60.5  Z " stroke-width="1" stroke="#000000" fill="none" stroke-opacity="0.149019607843137" />
  </g>
</svg>