<?xml version="1.0" encoding="utf-8"?>
<svg version="1.1" xmlns:xlink="http://www.w3.org/1999/xlink" width="32px" height="32px" xmlns="http://www.w3.org/2000/svg">
  <g transform="matrix(1 0 0 1 -688 -60 )">
    <path d="M 704 60.5  C 712.68 60.5  719.5 67.32  719.5 76  C 719.5 84.68  712.68 91.5  704 91.5  C 695.32 91.5  688.5 84.68  688.5 76  C 688.5 67.32  695.32 60.5  704 60.5  Z " fill-rule="nonzero" fill="#a6a6a6" stroke="none" />
    <path d="M 704 60.5  C 712.68 60.5  719.5 67.32  719.5 76  C 719.5 84.68  712.68 91.5  704 91.5  C 695.32 91.5  688.5 84.68  688.5 76  C 688.5 67.32  695.32 60.5  704 60.5  Z " stroke-width="1" stroke="#000000" fill="none" stroke-opacity="0.149019607843137" />
  </g>
</svg>