<?xml version="1.0" encoding="utf-8"?>
<svg version="1.1" xmlns:xlink="http://www.w3.org/1999/xlink" width="32px" height="32px" xmlns="http://www.w3.org/2000/svg">
  <g transform="matrix(1 0 0 1 -411 -59 )">
    <path d="M 427 59.5  C 435.68 59.5  442.5 66.32  442.5 75  C 442.5 83.68  435.68 90.5  427 90.5  C 418.32 90.5  411.5 83.68  411.5 75  C 411.5 66.32  418.32 59.5  427 59.5  Z " fill-rule="nonzero" fill="#28c76f" stroke="none" />
    <path d="M 427 59.5  C 435.68 59.5  442.5 66.32  442.5 75  C 442.5 83.68  435.68 90.5  427 90.5  C 418.32 90.5  411.5 83.68  411.5 75  C 411.5 66.32  418.32 59.5  427 59.5  Z " stroke-width="1" stroke="#000000" fill="none" stroke-opacity="0.149019607843137" />
  </g>
</svg>