<?xml version="1.0" encoding="utf-8"?>
<svg version="1.1" xmlns:xlink="http://www.w3.org/1999/xlink" width="32px" height="32px" xmlns="http://www.w3.org/2000/svg">
  <g transform="matrix(1 0 0 1 -683 -59 )">
    <path d="M 699 59  C 707.96 59  715 66.04  715 75  C 715 83.96  707.96 91  699 91  C 690.04 91  683 83.96  683 75  C 683 66.04  690.04 59  699 59  Z " fill-rule="nonzero" fill="#5fd593" stroke="none" />
    <path d="M 699 59.5  C 707.68 59.5  714.5 66.32  714.5 75  C 714.5 83.68  707.68 90.5  699 90.5  C 690.32 90.5  683.5 83.68  683.5 75  C 683.5 66.32  690.32 59.5  699 59.5  Z " stroke-width="1" stroke="#28c76f" fill="none" />
  </g>
</svg>