<?xml version="1.0" encoding="utf-8"?>
<svg version="1.1" xmlns:xlink="http://www.w3.org/1999/xlink" width="30px" height="30px" xmlns="http://www.w3.org/2000/svg">
  <g transform="matrix(1 0 0 1 -1351 -190 )">
    <path d="M 30 15  C 30 23.2854545507813  23.2854545507813 30  15 30  C 6.71454544921875 30  0 23.2854545507813  0 15  C 0 6.71454544921875  6.71454544921875 0  15 0  C 23.2854545507813 0  30 6.71454544921875  30 15  Z M 28.5709091015625 15  C 28.5709091015625 7.52318182617188  22.4754545507813 1.4290908984375  15 1.4290908984375  C 7.52318182617188 1.4290908984375  1.4290908984375 7.52454544921875  1.4290908984375 15  C 1.4290908984375 22.4768181738281  7.52454544921875 28.5709091015625  15 28.5709091015625  C 22.4768181738281 28.5709091015625  28.5709091015625 22.4754545507813  28.5709091015625 15  Z M 21.9040908984375 20.7613636230469  L 16.095 15  L 21.9040908984375 9.1909091015625  C 22.1904545214844 8.90454547851563  22.1904545214844 8.42863637695313  21.9040908984375 8.0959091015625  L 21.8577272753906 8.04818182617188  C 21.5668576440078 7.76175648448399  21.0999605298204 7.76175648448399  20.8090908984375 8.04818182617188  L 15 13.905  L 9.1909091015625 8.0959091015625  C 8.90003947017963 7.80948375987461  8.43314235599225 7.80948375987461  8.14227272460938 8.0959091015625  L 8.0959091015625 8.14227272460938  C 7.80954547851563 8.42863634765625  7.80954547851563 8.9059091015625  8.0959091015625 9.23863637695313  L 13.905 15  L 8.0959091015625 20.8090908984375  C 7.80954547851563 21.0954545214844  7.80954547851563 21.5713636230469  8.0959091015625 21.9040908984375  L 8.14227272460938 21.9518181738281  C 8.42863634765625 22.238181796875  8.9059091015625 22.238181796875  9.1909091015625 21.9518181738281  L 15 16.095  L 20.8090908984375 21.9040908984375  C 21.0954545214844 22.1904545214844  21.5713636230469 22.1904545214844  21.8577272753906 21.9040908984375  L 21.9040908984375 21.8577272753906  C 22.1904545214844 21.5713636523437  22.1904545214844 21.0940908984375  21.9040908984375 20.7613636230469  Z " fill-rule="nonzero" fill="#00cc00" stroke="none" transform="matrix(1 0 0 1 1351 190 )" />
  </g>
</svg>