<?xml version="1.0" encoding="utf-8"?>
<svg version="1.1" xmlns:xlink="http://www.w3.org/1999/xlink" width="105px" height="100px" xmlns="http://www.w3.org/2000/svg">
  <g transform="matrix(1 0 0 1 457 -521 )">
    <path d="M -457 521  L -352 521  L -352 621  L -457 621  L -457 521  " fill-rule="nonzero" fill="#cccccc" stroke="none" />
    <path d="M -450 528  L -359 528  L -359 614  L -450 614  L -450 528  " fill-rule="nonzero" fill="#ffffff" stroke="none" />
    <path d="M -394.9 551  C -399.1 551  -402.4 547.7  -402.4 543.5  C -402.4 539.3  -399.1 536  -394.9 536  C -390.7 536  -387.4 539.3  -387.4 543.5  C -387.4 547.7  -390.7 551  -394.9 551  " fill-rule="nonzero" fill="#cccccc" stroke="none" />
    <path d="M -448 612  L -448 567.45  L -426.5 547.2  L -396.4 565.714285714286  L -379.2 559.35  L -362 565.714285714286  L -362 612  L -448 612  " fill-rule="nonzero" fill="#169bd5" stroke="none" />
  </g>
</svg>