<?xml version="1.0" encoding="utf-8"?>
<svg version="1.1" xmlns:xlink="http://www.w3.org/1999/xlink" width="22px" height="24px" xmlns="http://www.w3.org/2000/svg">
  <g transform="matrix(1 0 0 1 -966 -381 )">
    <path d="M 21.6 20.4  C 21.6 18.9199921875  19.7200078125001 17.9200078125  16.6800000000001 17.319984375  C 16.2400078125 17.2399921875  15.84 17.52  15.7600078125 17.9599921875  C 15.6799921875 18.399984375  15.96 18.800015625  16.400015625 18.8800078125  C 18.6799921875 19.32  20.04 20.04  20.04 20.4  C 20.04 20.4799921875  19.92 20.5999921875  19.6000078125001 20.83996875  C 19.160015625 21.1199765625  18.5200078125 21.399984375  17.6800078125001 21.639984375  C 15.8800078125 22.1599921875  13.4399999999999 22.44  10.8400078124999 22.44  C 8.23999218750009 22.44  5.75999999999999 22.1599921875  4.00000781250003 21.639984375  C 3.1600078125 21.399984375  2.52002343749996 21.1199765625  2.08000781250007 20.83996875  C 1.72000781249994 20.5999921875  1.60000781250005 20.4799921875  1.60000781250005 20.4  C 1.60000781250005 20.0800078125  2.84001562499998 19.3999921875  4.91999999999996 18.96  C 5.35999218749998 18.8800078125  5.63999999999999 18.4399921875  5.51999999999998 18  C 5.47999218749999 17.5600078125  5.03999999999996 17.28  4.60000781250005 17.4  C 1.75999218750007 18  0 18.96  0 20.4  C 0 22.640015625  4.79999999999995 24  10.8 24  C 16.8000000000001 24  21.6 22.640015625  21.6 20.4  Z M 4.75607812500004 11.157328125  L 4.74442968749997 11.157328125  L 10.1532421875 19.799859375  C 10.2695625 20.0371640625  10.5161718749999 20.199984375  10.8 20.199984375  C 11.08378125 20.199984375  11.32809375 20.0371640625  11.446734375 19.799859375  L 16.8555703125 11.157328125  L 16.841625 11.157328125  C 17.5837265625 10.0220625  18.0164296875 8.67044531249996  18.0164296875 7.21410937500002  C 18.0164296875 3.23135156249998  14.785078125 0  10.8 0  C 6.81489843750001 0  3.5835703125 3.23135156249998  3.5835703125 7.21410937500002  C 3.5835703125 8.67042187499999  4.01392968749997 10.0220625  4.75607812500004 11.157328125  Z M 7.5104765625 7.21410937500002  C 7.5104765625 5.39721093750001  8.98307812500002 3.92463281250002  10.8 3.92463281250002  C 12.6168984375 3.92463281250002  14.0895 5.39721093750001  14.0895 7.2141328125  C 14.0895 9.03105468749999  12.6168984375 10.503609375  10.8 10.503609375  C 8.98307812500002 10.503609375  7.5104765625 9.03100781249998  7.5104765625 7.21410937500002  Z " fill-rule="nonzero" fill="#ff0000" stroke="none" transform="matrix(1 0 0 1 966 381 )" />
  </g>
</svg>