<?xml version="1.0" encoding="utf-8"?>
<svg version="1.1" xmlns:xlink="http://www.w3.org/1999/xlink" width="330px" height="48px" xmlns="http://www.w3.org/2000/svg">
  <g transform="matrix(1 0 0 1 -1218 -380 )">
    <path d="M 1219 384  A 3 3 0 0 1 1222 381 L 1544 381  A 3 3 0 0 1 1547 384 L 1547 424  A 3 3 0 0 1 1544 427 L 1222 427  A 3 3 0 0 1 1219 424 L 1219 384  Z " fill-rule="nonzero" fill="#ff3399" stroke="none" fill-opacity="0.0980392156862745" />
    <path d="M 1218.5 384  A 3.5 3.5 0 0 1 1222 380.5 L 1544 380.5  A 3.5 3.5 0 0 1 1547.5 384 L 1547.5 424  A 3.5 3.5 0 0 1 1544 427.5 L 1222 427.5  A 3.5 3.5 0 0 1 1218.5 424 L 1218.5 384  Z " stroke-width="1" stroke-dasharray="9,4" stroke="#ff3399" fill="none" stroke-dashoffset="0.5" />
  </g>
</svg>