<?xml version="1.0" encoding="utf-8"?>
<svg version="1.1" xmlns:xlink="http://www.w3.org/1999/xlink" width="355px" height="32px" xmlns="http://www.w3.org/2000/svg">
  <g transform="matrix(1 0 0 1 -1218 -1908 )">
    <path d="M 1219 1912  A 3 3 0 0 1 1222 1909 L 1569 1909  A 3 3 0 0 1 1572 1912 L 1572 1936  A 3 3 0 0 1 1569 1939 L 1222 1939  A 3 3 0 0 1 1219 1936 L 1219 1912  Z " fill-rule="nonzero" fill="#ff3399" stroke="none" fill-opacity="0.0980392156862745" />
    <path d="M 1218.5 1912  A 3.5 3.5 0 0 1 1222 1908.5 L 1569 1908.5  A 3.5 3.5 0 0 1 1572.5 1912 L 1572.5 1936  A 3.5 3.5 0 0 1 1569 1939.5 L 1222 1939.5  A 3.5 3.5 0 0 1 1218.5 1936 L 1218.5 1912  Z " stroke-width="1" stroke-dasharray="9,4" stroke="#ff3399" fill="none" stroke-dashoffset="0.5" />
  </g>
</svg>