<?xml version="1.0" encoding="utf-8"?>
<svg version="1.1" xmlns:xlink="http://www.w3.org/1999/xlink" width="166px" height="100px" xmlns="http://www.w3.org/2000/svg">
  <g transform="matrix(1 0 0 1 -1223 -200 )">
    <path d="M 1224 204  A 3 3 0 0 1 1227 201 L 1385 201  A 3 3 0 0 1 1388 204 L 1388 296  A 3 3 0 0 1 1385 299 L 1227 299  A 3 3 0 0 1 1224 296 L 1224 204  Z " fill-rule="nonzero" fill="#ff3399" stroke="none" fill-opacity="0.0980392156862745" />
    <path d="M 1223.5 204  A 3.5 3.5 0 0 1 1227 200.5 L 1385 200.5  A 3.5 3.5 0 0 1 1388.5 204 L 1388.5 296  A 3.5 3.5 0 0 1 1385 299.5 L 1227 299.5  A 3.5 3.5 0 0 1 1223.5 296 L 1223.5 204  Z " stroke-width="1" stroke-dasharray="9,4" stroke="#ff3399" fill="none" stroke-dashoffset="0.5" />
  </g>
</svg>