<?xml version="1.0" encoding="utf-8"?>
<svg version="1.1" xmlns:xlink="http://www.w3.org/1999/xlink" width="355px" height="48px" xmlns="http://www.w3.org/2000/svg">
  <g transform="matrix(1 0 0 1 -1218 -464 )">
    <path d="M 1219 468  A 3 3 0 0 1 1222 465 L 1569 465  A 3 3 0 0 1 1572 468 L 1572 508  A 3 3 0 0 1 1569 511 L 1222 511  A 3 3 0 0 1 1219 508 L 1219 468  Z " fill-rule="nonzero" fill="#ff3399" stroke="none" fill-opacity="0.0980392156862745" />
    <path d="M 1218.5 468  A 3.5 3.5 0 0 1 1222 464.5 L 1569 464.5  A 3.5 3.5 0 0 1 1572.5 468 L 1572.5 508  A 3.5 3.5 0 0 1 1569 511.5 L 1222 511.5  A 3.5 3.5 0 0 1 1218.5 508 L 1218.5 468  Z " stroke-width="1" stroke-dasharray="9,4" stroke="#ff3399" fill="none" stroke-dashoffset="0.5" />
  </g>
</svg>