<?xml version="1.0" encoding="utf-8"?>
<svg version="1.1" xmlns:xlink="http://www.w3.org/1999/xlink" width="488px" height="110px" xmlns="http://www.w3.org/2000/svg">
  <g transform="matrix(1 0 0 1 -1450 -126 )">
    <path d="M 1451 130  A 3 3 0 0 1 1454 127 L 1934 127  A 3 3 0 0 1 1937 130 L 1937 232  A 3 3 0 0 1 1934 235 L 1454 235  A 3 3 0 0 1 1451 232 L 1451 130  Z " fill-rule="nonzero" fill="#ff3399" stroke="none" fill-opacity="0.0980392156862745" />
    <path d="M 1450.5 130  A 3.5 3.5 0 0 1 1454 126.5 L 1934 126.5  A 3.5 3.5 0 0 1 1937.5 130 L 1937.5 232  A 3.5 3.5 0 0 1 1934 235.5 L 1454 235.5  A 3.5 3.5 0 0 1 1450.5 232 L 1450.5 130  Z " stroke-width="1" stroke-dasharray="9,4" stroke="#ff3399" fill="none" stroke-dashoffset="0.5" />
  </g>
</svg>