<?xml version="1.0" encoding="utf-8"?>
<svg version="1.1" xmlns:xlink="http://www.w3.org/1999/xlink" width="371px" height="149px" xmlns="http://www.w3.org/2000/svg">
  <g transform="matrix(1 0 0 1 -989 -711 )">
    <path d="M 990 715  A 3 3 0 0 1 993 712 L 1356 712  A 3 3 0 0 1 1359 715 L 1359 856  A 3 3 0 0 1 1356 859 L 993 859  A 3 3 0 0 1 990 856 L 990 715  Z " fill-rule="nonzero" fill="#ff3399" stroke="none" fill-opacity="0.0980392156862745" />
    <path d="M 989.5 715  A 3.5 3.5 0 0 1 993 711.5 L 1356 711.5  A 3.5 3.5 0 0 1 1359.5 715 L 1359.5 856  A 3.5 3.5 0 0 1 1356 859.5 L 993 859.5  A 3.5 3.5 0 0 1 989.5 856 L 989.5 715  Z " stroke-width="1" stroke-dasharray="9,4" stroke="#ff3399" fill="none" stroke-dashoffset="0.5" />
  </g>
</svg>