<?xml version="1.0" encoding="utf-8"?>
<svg version="1.1" xmlns:xlink="http://www.w3.org/1999/xlink" width="20px" height="24px" xmlns="http://www.w3.org/2000/svg">
  <g transform="matrix(1 0 0 1 -1041 -939 )">
    <path d="M 1.8125 0  L 18.1875 0  C 18.4270833333333 0  18.65625 0.0475875743555854  18.875 0.142762723066756  C 19.21875 0.280237937871775  19.4921875 0.497025776602775  19.6953125 0.793126239259749  C 19.8984375 1.08922670191672  20 1.41705221414408  20 1.77660277594184  L 20 22.2233972240582  C 20 22.5829477858559  19.8984375 22.9107732980833  19.6953125 23.2068737607403  C 19.4921875 23.5029742233972  19.21875 23.7197620621282  18.875 23.8572372769332  C 18.6770833333333 23.941837409121  18.4479166666667 23.9841374752148  18.1875 23.9841374752148  C 17.6875 23.9841374752148  17.2552083333333 23.8149372108394  16.890625 23.4765366820886  L 10 16.7508261731659  L 3.109375 23.4765366820886  C 2.734375 23.8255122273629  2.30208333333333 24  1.8125 24  C 1.57291666666667 24  1.34375 23.9524124256444  1.125 23.8572372769332  C 0.78125 23.7197620621282  0.5078125 23.5029742233972  0.3046875 23.2068737607403  C 0.1015625 22.9107732980833  0 22.5829477858559  0 22.2233972240582  L 0 1.77660277594184  C 0 1.41705221414408  0.1015625 1.08922670191672  0.3046875 0.793126239259749  C 0.5078125 0.497025776602775  0.78125 0.280237937871775  1.125 0.142762723066756  C 1.34375 0.0475875743555854  1.57291666666667 0  1.8125 0  Z " fill-rule="nonzero" fill="#000000" stroke="none" transform="matrix(1 0 0 1 1041 939 )" />
  </g>
</svg>