<?xml version="1.0" encoding="utf-8"?>
<svg version="1.1" xmlns:xlink="http://www.w3.org/1999/xlink" width="362px" height="33px" xmlns="http://www.w3.org/2000/svg">
  <g transform="matrix(1 0 0 1 -269 -648 )">
    <path d="M 270 652  A 3 3 0 0 1 273 649 L 627 649  A 3 3 0 0 1 630 652 L 630 677  A 3 3 0 0 1 627 680 L 273 680  A 3 3 0 0 1 270 677 L 270 652  Z " fill-rule="nonzero" fill="#ff3399" stroke="none" fill-opacity="0.0980392156862745" />
    <path d="M 269.5 652  A 3.5 3.5 0 0 1 273 648.5 L 627 648.5  A 3.5 3.5 0 0 1 630.5 652 L 630.5 677  A 3.5 3.5 0 0 1 627 680.5 L 273 680.5  A 3.5 3.5 0 0 1 269.5 677 L 269.5 652  Z " stroke-width="1" stroke-dasharray="9,4" stroke="#ff3399" fill="none" stroke-dashoffset="0.5" />
  </g>
</svg>