<?xml version="1.0" encoding="utf-8"?>
<svg version="1.1" xmlns:xlink="http://www.w3.org/1999/xlink" width="15px" height="16px" xmlns="http://www.w3.org/2000/svg">
  <g transform="matrix(1 0 0 1 -306 -142 )">
    <path d="M 14.6688179347826 6.41335044929397  C 14.8896059782609 6.67008985879333  15 6.97988874625588  15 7.34274711168164  L 15 8.65725288831836  C 15 9.02011125374412  14.8896059782609 9.32991014120667  14.6688179347826 9.58664955070603  C 14.4480298913043 9.84338896020539  14.1610054347826 9.97175866495507  13.8077445652174 9.97175866495507  L 6.63383152173913 9.97175866495507  L 9.6195652173913 12.9910141206675  C 9.87771739130435 13.2374839537869  10.0067934782609 13.5455712451861  10.0067934782609 13.9152759948652  C 10.0067934782609 14.2849807445443  9.87771739130435 14.5930680359435  9.6195652173913 14.8395378690629  L 8.85529891304348 15.6200256739409  C 8.6039402173913 15.8733418913137  8.29823369565217 16  7.93817934782609 16  C 7.58491847826087 16  7.2758152173913 15.8733418913137  7.01086956521739 15.6200256739409  L 0.377038043478261 8.92426187419769  C 0.125679347826087 8.67094565682499  0 8.36285836542576  0 8  C 0 7.64398801882756  0.125679347826087 7.33247753530167  0.377038043478261 7.06546854942234  L 7.01086956521739 0.390243902439025  C 7.26902173913044 0.130081300813007  7.578125 0  7.93817934782609 0  C 8.2914402173913 0  8.59714673913044 0.130081300813007  8.85529891304348 0.390243902439025  L 9.6195652173913 1.15019255455712  C 9.87771739130435 1.41035515618314  10.0067934782609 1.72186563970903  10.0067934782609 2.08472400513479  C 10.0067934782609 2.44758237056055  9.87771739130435 2.75909285408643  9.6195652173913 3.01925545571245  L 6.63383152173913 6.02824133504493  L 13.8077445652174 6.02824133504493  C 14.1610054347826 6.02824133504493  14.4480298913043 6.15661103979461  14.6688179347826 6.41335044929397  Z " fill-rule="nonzero" fill="#28c76f" stroke="none" transform="matrix(1 0 0 1 306 142 )" />
  </g>
</svg>