<?xml version="1.0" encoding="utf-8"?>
<svg version="1.1" xmlns:xlink="http://www.w3.org/1999/xlink" width="12px" height="12px" viewBox="241 430  12 12" xmlns="http://www.w3.org/2000/svg">
  <path d="M 247 430  C 250.36 430  253 432.64  253 436  C 253 439.36  250.36 442  247 442  C 243.64 442  241 439.36  241 436  C 241 432.64  243.64 430  247 430  Z " fill-rule="nonzero" fill="#ffffff" stroke="none" />
  <path d="M 247 430.5  C 250.08 430.5  252.5 432.92  252.5 436  C 252.5 439.08  250.08 441.5  247 441.5  C 243.92 441.5  241.5 439.08  241.5 436  C 241.5 432.92  243.92 430.5  247 430.5  Z " stroke-width="1" stroke="#797979" fill="none" />
  <path d="M 247 439  C 245.32 439  244 437.68  244 436  C 244 434.32  245.32 433  247 433  C 248.68 433  250 434.32  250 436  C 250 437.68  248.68 439  247 439  " fill-rule="nonzero" fill="#797979" stroke="none" />
</svg>