<?xml version="1.0" encoding="utf-8"?>
<svg version="1.1" xmlns:xlink="http://www.w3.org/1999/xlink" width="12px" height="12px" viewBox="153 430  12 12" xmlns="http://www.w3.org/2000/svg">
  <path d="M 159 430  C 162.36 430  165 432.64  165 436  C 165 439.36  162.36 442  159 442  C 155.64 442  153 439.36  153 436  C 153 432.64  155.64 430  159 430  Z " fill-rule="nonzero" fill="#ffffff" stroke="none" />
  <path d="M 159 430.5  C 162.08 430.5  164.5 432.92  164.5 436  C 164.5 439.08  162.08 441.5  159 441.5  C 155.92 441.5  153.5 439.08  153.5 436  C 153.5 432.92  155.92 430.5  159 430.5  Z " stroke-width="1" stroke="#797979" fill="none" />
  <path d="M 159 439  C 157.32 439  156 437.68  156 436  C 156 434.32  157.32 433  159 433  C 160.68 433  162 434.32  162 436  C 162 437.68  160.68 439  159 439  " fill-rule="nonzero" fill="#797979" stroke="none" />
</svg>