<?xml version="1.0" encoding="utf-8"?>
<svg version="1.1" xmlns:xlink="http://www.w3.org/1999/xlink" width="643px" height="128px" xmlns="http://www.w3.org/2000/svg">
  <g transform="matrix(1 0 0 1 -1450 -95 )">
    <path d="M 1451 99  A 3 3 0 0 1 1454 96 L 2089 96  A 3 3 0 0 1 2092 99 L 2092 219  A 3 3 0 0 1 2089 222 L 1454 222  A 3 3 0 0 1 1451 219 L 1451 99  Z " fill-rule="nonzero" fill="#ff3399" stroke="none" fill-opacity="0.0980392156862745" />
    <path d="M 1450.5 99  A 3.5 3.5 0 0 1 1454 95.5 L 2089 95.5  A 3.5 3.5 0 0 1 2092.5 99 L 2092.5 219  A 3.5 3.5 0 0 1 2089 222.5 L 1454 222.5  A 3.5 3.5 0 0 1 1450.5 219 L 1450.5 99  Z " stroke-width="1" stroke-dasharray="9,4" stroke="#ff3399" fill="none" stroke-dashoffset="0.5" />
  </g>
</svg>