<?xml version="1.0" encoding="utf-8"?>
<svg version="1.1" xmlns:xlink="http://www.w3.org/1999/xlink" width="643px" height="221px" xmlns="http://www.w3.org/2000/svg">
  <g transform="matrix(1 0 0 1 -1450 -256 )">
    <path d="M 1451 260  A 3 3 0 0 1 1454 257 L 2089 257  A 3 3 0 0 1 2092 260 L 2092 473  A 3 3 0 0 1 2089 476 L 1454 476  A 3 3 0 0 1 1451 473 L 1451 260  Z " fill-rule="nonzero" fill="#ff3399" stroke="none" fill-opacity="0.0980392156862745" />
    <path d="M 1450.5 260  A 3.5 3.5 0 0 1 1454 256.5 L 2089 256.5  A 3.5 3.5 0 0 1 2092.5 260 L 2092.5 473  A 3.5 3.5 0 0 1 2089 476.5 L 1454 476.5  A 3.5 3.5 0 0 1 1450.5 473 L 1450.5 260  Z " stroke-width="1" stroke-dasharray="9,4" stroke="#ff3399" fill="none" stroke-dashoffset="0.5" />
  </g>
</svg>