<?xml version="1.0" encoding="utf-8"?>
<svg version="1.1" xmlns:xlink="http://www.w3.org/1999/xlink" width="32px" height="32px" xmlns="http://www.w3.org/2000/svg">
  <g transform="matrix(1 0 0 1 -446 -516 )">
    <path d="M 447 520  A 3 3 0 0 1 450 517 L 474 517  A 3 3 0 0 1 477 520 L 477 544  A 3 3 0 0 1 474 547 L 450 547  A 3 3 0 0 1 447 544 L 447 520  Z " fill-rule="nonzero" fill="#f6f6f6" stroke="none" />
    <path d="M 446.5 520  A 3.5 3.5 0 0 1 450 516.5 L 474 516.5  A 3.5 3.5 0 0 1 477.5 520 L 477.5 544  A 3.5 3.5 0 0 1 474 547.5 L 450 547.5  A 3.5 3.5 0 0 1 446.5 544 L 446.5 520  Z " stroke-width="1" stroke="#000000" fill="none" stroke-opacity="0.0470588235294118" />
  </g>
</svg>