<?xml version="1.0" encoding="utf-8"?>
<svg version="1.1" xmlns:xlink="http://www.w3.org/1999/xlink" width="24px" height="24px" xmlns="http://www.w3.org/2000/svg">
  <g transform="matrix(1 0 0 1 -446 -558 )">
    <path d="M 447 562  A 3 3 0 0 1 450 559 L 466 559  A 3 3 0 0 1 469 562 L 469 578  A 3 3 0 0 1 466 581 L 450 581  A 3 3 0 0 1 447 578 L 447 562  Z " fill-rule="nonzero" fill="#f6f6f6" stroke="none" />
    <path d="M 446.5 562  A 3.5 3.5 0 0 1 450 558.5 L 466 558.5  A 3.5 3.5 0 0 1 469.5 562 L 469.5 578  A 3.5 3.5 0 0 1 466 581.5 L 450 581.5  A 3.5 3.5 0 0 1 446.5 578 L 446.5 562  Z " stroke-width="1" stroke="#000000" fill="none" stroke-opacity="0.0470588235294118" />
  </g>
</svg>