<?xml version="1.0" encoding="utf-8"?>
<svg version="1.1" xmlns:xlink="http://www.w3.org/1999/xlink" width="49px" height="33px" xmlns="http://www.w3.org/2000/svg">
  <g transform="matrix(1 0 0 1 -1708 -1668 )">
    <path d="M 47.5 26.2857142857143  L 47.5 5.71428571428571  C 47.5636363636364 2.19428571428573  46.518303030303 0.571428571428571  43.8303030303031 0.571428571428571  L 0 0.571428571428571  L 0 31.5  L 43.8303030303031 31.5  C 46.518303030303 31.4285714285714  47.5636363636364 29.8057142857143  47.5 26.2857142857143  Z " fill-rule="nonzero" fill="#ebebeb" stroke="none" transform="matrix(1 0 0 1 1708 1668 )" />
    <path d="M 0 31.5  L 43.8303030303031 31.5  C 46.518303030303 31.4285714285714  47.5636363636364 29.8057142857143  47.5 26.2857142857143  L 47.5 5.71428571428571  C 47.5636363636364 2.19428571428573  46.518303030303 0.571428571428571  43.8303030303031 0.571428571428571  L 0 0.571428571428571  " stroke-width="1" stroke="#d9d9d9" fill="none" transform="matrix(1 0 0 1 1708 1668 )" />
  </g>
</svg>