<?xml version="1.0" encoding="utf-8"?>
<svg version="1.1" xmlns:xlink="http://www.w3.org/1999/xlink" width="438px" height="192px" xmlns="http://www.w3.org/2000/svg">
  <g transform="matrix(1 0 0 1 -32 -514 )">
    <path d="M 33 520  A 5 5 0 0 1 38 515 L 464 515  A 5 5 0 0 1 469 520 L 469 700  A 5 5 0 0 1 464 705 L 38 705  A 5 5 0 0 1 33 700 L 33 520  Z " fill-rule="nonzero" fill="#000000" stroke="none" fill-opacity="0.0196078431372549" />
    <path d="M 32.5 520  A 5.5 5.5 0 0 1 38 514.5 L 464 514.5  A 5.5 5.5 0 0 1 469.5 520 L 469.5 700  A 5.5 5.5 0 0 1 464 705.5 L 38 705.5  A 5.5 5.5 0 0 1 32.5 700 L 32.5 520  Z " stroke-width="1" stroke-dasharray="9,4" stroke="#108ee9" fill="none" stroke-dashoffset="0.5" />
  </g>
</svg>