<?xml version="1.0" encoding="utf-8"?>
<svg version="1.1" xmlns:xlink="http://www.w3.org/1999/xlink" width="1073px" height="32px" xmlns="http://www.w3.org/2000/svg">
  <g transform="matrix(1 0 0 1 -310 -648 )">
    <path d="M 311 652  A 3 3 0 0 1 314 649 L 1379 649  A 3 3 0 0 1 1382 652 L 1382 676  A 3 3 0 0 1 1379 679 L 314 679  A 3 3 0 0 1 311 676 L 311 652  Z " fill-rule="nonzero" fill="#ffffff" stroke="none" />
    <path d="M 310.5 652  A 3.5 3.5 0 0 1 314 648.5 L 1379 648.5  A 3.5 3.5 0 0 1 1382.5 652 L 1382.5 676  A 3.5 3.5 0 0 1 1379 679.5 L 314 679.5  A 3.5 3.5 0 0 1 310.5 676 L 310.5 652  Z " stroke-width="1" stroke-dasharray="9,4" stroke="#d9d9d9" fill="none" stroke-dashoffset="0.5" />
  </g>
</svg>