<?xml version="1.0" encoding="utf-8"?>
<svg version="1.1" xmlns:xlink="http://www.w3.org/1999/xlink" width="200px" height="39px" xmlns="http://www.w3.org/2000/svg">
  <g transform="matrix(1 0 0 1 -682 -110 )">
    <path d="M 683 114  A 3 3 0 0 1 686 111 L 878 111  A 3 3 0 0 1 881 114 L 881 145  A 3 3 0 0 1 878 148 L 686 148  A 3 3 0 0 1 683 145 L 683 114  Z " fill-rule="nonzero" fill="#ff3399" stroke="none" fill-opacity="0.0980392156862745" />
    <path d="M 682.5 114  A 3.5 3.5 0 0 1 686 110.5 L 878 110.5  A 3.5 3.5 0 0 1 881.5 114 L 881.5 145  A 3.5 3.5 0 0 1 878 148.5 L 686 148.5  A 3.5 3.5 0 0 1 682.5 145 L 682.5 114  Z " stroke-width="1" stroke-dasharray="9,4" stroke="#ff3399" fill="none" stroke-dashoffset="0.5" />
  </g>
</svg>