<?xml version="1.0" encoding="utf-8"?>
<svg version="1.1" xmlns:xlink="http://www.w3.org/1999/xlink" width="19px" height="24px" xmlns="http://www.w3.org/2000/svg">
  <g transform="matrix(1 0 0 1 -1055 -138 )">
    <path d="M 1.721875 0  L 17.278125 0  C 17.5057291666667 0  17.7234375 0.0475875743555854  17.93125 0.142762723066756  C 18.2578125 0.280237937871775  18.517578125 0.497025776602775  18.710546875 0.793126239259749  C 18.903515625 1.08922670191672  19 1.41705221414408  19 1.77660277594184  L 19 22.2233972240582  C 19 22.5829477858559  18.903515625 22.9107732980833  18.710546875 23.2068737607403  C 18.517578125 23.5029742233972  18.2578125 23.7197620621282  17.93125 23.8572372769332  C 17.7432291666667 23.941837409121  17.5255208333333 23.9841374752148  17.278125 23.9841374752148  C 16.803125 23.9841374752148  16.3924479166667 23.8149372108394  16.04609375 23.4765366820886  L 9.5 16.7508261731659  L 2.95390625 23.4765366820886  C 2.59765625 23.8255122273629  2.18697916666667 24  1.721875 24  C 1.49427083333333 24  1.2765625 23.9524124256444  1.06875 23.8572372769332  C 0.7421875 23.7197620621282  0.482421875 23.5029742233972  0.289453125 23.2068737607403  C 0.096484375 22.9107732980833  0 22.5829477858559  0 22.2233972240582  L 0 1.77660277594184  C 0 1.41705221414408  0.096484375 1.08922670191672  0.289453125 0.793126239259749  C 0.482421875 0.497025776602775  0.7421875 0.280237937871775  1.06875 0.142762723066756  C 1.2765625 0.0475875743555854  1.49427083333333 0  1.721875 0  Z " fill-rule="nonzero" fill="#000000" stroke="none" transform="matrix(1 0 0 1 1055 138 )" />
  </g>
</svg>