<?xml version="1.0" encoding="utf-8"?>
<svg version="1.1" xmlns:xlink="http://www.w3.org/1999/xlink" width="14px" height="13px" xmlns="http://www.w3.org/2000/svg">
  <g transform="matrix(1 0 0 1 -327 -876 )">
    <path d="M 13.8597194388778 11.5734989648033  C 13.9532398129593 11.6632160110421  14 11.7663906142167  14 11.8830227743271  C 14 11.9996549344375  13.9532398129593 12.1028295376121  13.8597194388778 12.1925465838509  L 13.1583166332665 12.8654244306418  C 13.064796259185 12.9551414768806  12.9572478289913 13  12.8356713426854 13  C 12.7140948563794 13  12.6065464261857 12.9551414768806  12.5130260521042 12.8654244306418  L 7 7.57660455486543  L 1.48697394789579 12.8654244306418  C 1.3934535738143 12.9551414768806  1.28590514362057 13  1.16432865731463 13  C 1.04275217100868 13  0.935203740814964 12.9551414768806  0.841683366733467 12.8654244306418  L 0.140280561122244 12.1925465838509  C 0.0467601870407483 12.1028295376121  0 11.9996549344375  0 11.8830227743271  C 0 11.7663906142167  0.0467601870407483 11.6632160110421  0.140280561122244 11.5734989648033  L 6.67735470941884 5.30227743271221  C 6.77087508350033 5.21256038647343  6.87842351369406 5.16770186335404  7 5.16770186335404  C 7.12157648630595 5.16770186335404  7.22912491649967 5.21256038647343  7.32264529058116 5.30227743271221  L 13.8597194388778 11.5734989648033  Z M 13.8597194388778 6.40579710144928  C 13.9532398129593 6.49551414768806  14 6.59868875086266  14 6.71532091097308  C 14 6.83195307108351  13.9532398129593 6.93512767425811  13.8597194388778 7.02484472049689  L 13.1583166332665 7.69772256728778  C 13.064796259185 7.78743961352657  12.9572478289913 7.83229813664596  12.8356713426854 7.83229813664596  C 12.7140948563794 7.83229813664596  12.6065464261857 7.78743961352657  12.5130260521042 7.69772256728778  L 7 2.40890269151139  L 1.48697394789579 7.69772256728778  C 1.3934535738143 7.78743961352657  1.28590514362057 7.83229813664596  1.16432865731463 7.83229813664596  C 1.04275217100868 7.83229813664596  0.935203740814964 7.78743961352657  0.841683366733467 7.69772256728778  L 0.140280561122244 7.02484472049689  C 0.0467601870407483 6.93512767425811  0 6.83195307108351  0 6.71532091097308  C 0 6.59868875086266  0.0467601870407483 6.49551414768806  0.140280561122244 6.40579710144928  L 6.67735470941884 0.134575569358178  C 6.77087508350033 0.0448585231193916  6.87842351369406 0  7 0  C 7.12157648630595 0  7.22912491649967 0.0448585231193916  7.32264529058116 0.134575569358178  L 13.8597194388778 6.40579710144928  Z " fill-rule="nonzero" fill="#bbbbbb" stroke="none" transform="matrix(1 0 0 1 327 876 )" />
  </g>
</svg>