<?xml version="1.0" encoding="utf-8"?>
<svg version="1.1" xmlns:xlink="http://www.w3.org/1999/xlink" width="20px" height="17px" xmlns="http://www.w3.org/2000/svg">
  <g transform="matrix(1 0 0 1 -1821 -12 )">
    <path d="M 18.5677083333333 10.3644831730769  C 18.6336805555556 10.2997796474359  18.6666666666667 10.2231570512821  18.6666666666667 10.1346153846154  L 18.6666666666667 1.63461538461538  C 18.6666666666667 1.54607371794872  18.6336805555556 1.46945112179487  18.5677083333333 1.40474759615385  C 18.5017361111111 1.34004407051282  18.4236111111111 1.30769230769231  18.3333333333333 1.30769230769231  L 1.66666666666667 1.30769230769231  C 1.57638888888889 1.30769230769231  1.49826388888889 1.34004407051282  1.43229166666667 1.40474759615385  C 1.36631944444444 1.46945112179487  1.33333333333333 1.54607371794872  1.33333333333333 1.63461538461538  L 1.33333333333333 10.1346153846154  C 1.33333333333333 10.2231570512821  1.36631944444444 10.2997796474359  1.43229166666667 10.3644831730769  C 1.49826388888889 10.4291866987179  1.57638888888889 10.4615384615385  1.66666666666667 10.4615384615385  L 18.3333333333333 10.4615384615385  C 18.4236111111111 10.4615384615385  18.5017361111111 10.4291866987179  18.5677083333333 10.3644831730769  Z M 19.5104166666667 0.480168269230769  C 19.8368055555556 0.800280448717948  20 1.18509615384615  20 1.63461538461538  L 20 12.75  C 20 13.1995192307692  19.8368055555556 13.5843349358974  19.5104166666667 13.9044471153846  C 19.1840277777778 14.2245592948718  18.7916666666667 14.3846153846154  18.3333333333333 14.3846153846154  L 12.6666666666667 14.3846153846154  C 12.6666666666667 14.6366185897436  12.7222222222222 14.9005408653846  12.8333333333333 15.1763822115385  C 12.9444444444444 15.4522235576923  13.0555555555556 15.6940104166667  13.1666666666667 15.9017427884615  C 13.2777777777778 16.1094751602564  13.3333333333333 16.2576121794872  13.3333333333333 16.3461538461538  C 13.3333333333333 16.5232371794872  13.2673611111111 16.6764823717949  13.1354166666667 16.8058894230769  C 13.0034722222222 16.935296474359  12.8472222222222 17  12.6666666666667 17  L 7.33333333333333 17  C 7.15277777777778 17  6.99652777777778 16.935296474359  6.86458333333333 16.8058894230769  C 6.73263888888889 16.6764823717949  6.66666666666667 16.5232371794872  6.66666666666667 16.3461538461538  C 6.66666666666667 16.2508012820513  6.72222222222222 16.1009615384615  6.83333333333333 15.8966346153846  C 6.94444444444445 15.6923076923077  7.05555555555556 15.4539262820513  7.16666666666667 15.1814903846154  C 7.27777777777778 14.9090544871795  7.33333333333333 14.6434294871795  7.33333333333333 14.3846153846154  L 1.66666666666667 14.3846153846154  C 1.20833333333333 14.3846153846154  0.815972222222222 14.2245592948718  0.489583333333333 13.9044471153846  C 0.163194444444444 13.5843349358974  0 13.1995192307692  0 12.75  L 0 1.63461538461538  C 0 1.18509615384615  0.163194444444444 0.800280448717948  0.489583333333333 0.480168269230769  C 0.815972222222222 0.16005608974359  1.20833333333333 0  1.66666666666667 0  L 18.3333333333333 0  C 18.7916666666667 0  19.1840277777778 0.16005608974359  19.5104166666667 0.480168269230769  Z " fill-rule="nonzero" fill="#67c671" stroke="none" transform="matrix(1 0 0 1 1821 12 )" />
  </g>
</svg>