<?xml version="1.0" encoding="utf-8"?>
<svg version="1.1" xmlns:xlink="http://www.w3.org/1999/xlink" width="479px" height="135px" xmlns="http://www.w3.org/2000/svg">
  <g transform="matrix(1 0 0 1 -32 -106 )">
    <path d="M 33 110  A 3 3 0 0 1 36 107 L 507 107  A 3 3 0 0 1 510 110 L 510 237  A 3 3 0 0 1 507 240 L 36 240  A 3 3 0 0 1 33 237 L 33 110  Z " fill-rule="nonzero" fill="#ff3399" stroke="none" fill-opacity="0.0980392156862745" />
    <path d="M 32.5 110  A 3.5 3.5 0 0 1 36 106.5 L 507 106.5  A 3.5 3.5 0 0 1 510.5 110 L 510.5 237  A 3.5 3.5 0 0 1 507 240.5 L 36 240.5  A 3.5 3.5 0 0 1 32.5 237 L 32.5 110  Z " stroke-width="1" stroke-dasharray="9,4" stroke="#ff3399" fill="none" stroke-dashoffset="0.5" />
  </g>
</svg>