<?xml version="1.0" encoding="utf-8"?>
<svg version="1.1" xmlns:xlink="http://www.w3.org/1999/xlink" width="643px" height="218px" xmlns="http://www.w3.org/2000/svg">
  <g transform="matrix(1 0 0 1 -1450 -48 )">
    <path d="M 1451 52  A 3 3 0 0 1 1454 49 L 2089 49  A 3 3 0 0 1 2092 52 L 2092 262  A 3 3 0 0 1 2089 265 L 1454 265  A 3 3 0 0 1 1451 262 L 1451 52  Z " fill-rule="nonzero" fill="#ff3399" stroke="none" fill-opacity="0.0980392156862745" />
    <path d="M 1450.5 52  A 3.5 3.5 0 0 1 1454 48.5 L 2089 48.5  A 3.5 3.5 0 0 1 2092.5 52 L 2092.5 262  A 3.5 3.5 0 0 1 2089 265.5 L 1454 265.5  A 3.5 3.5 0 0 1 1450.5 262 L 1450.5 52  Z " stroke-width="1" stroke-dasharray="9,4" stroke="#ff3399" fill="none" stroke-dashoffset="0.5" />
  </g>
</svg>