<?xml version="1.0" encoding="utf-8"?>
<svg version="1.1" xmlns:xlink="http://www.w3.org/1999/xlink" width="481px" height="310px" xmlns="http://www.w3.org/2000/svg">
  <g transform="matrix(1 0 0 1 -257 -1015 )">
    <path d="M 258 1019  A 3 3 0 0 1 261 1016 L 734 1016  A 3 3 0 0 1 737 1019 L 737 1321  A 3 3 0 0 1 734 1324 L 261 1324  A 3 3 0 0 1 258 1321 L 258 1019  Z " fill-rule="nonzero" fill="#ff3399" stroke="none" fill-opacity="0.0980392156862745" />
    <path d="M 257.5 1019  A 3.5 3.5 0 0 1 261 1015.5 L 734 1015.5  A 3.5 3.5 0 0 1 737.5 1019 L 737.5 1321  A 3.5 3.5 0 0 1 734 1324.5 L 261 1324.5  A 3.5 3.5 0 0 1 257.5 1321 L 257.5 1019  Z " stroke-width="1" stroke-dasharray="9,4" stroke="#ff3399" fill="none" stroke-dashoffset="0.5" />
  </g>
</svg>