<?xml version="1.0" encoding="utf-8"?>
<svg version="1.1" xmlns:xlink="http://www.w3.org/1999/xlink" width="14px" height="14px" xmlns="http://www.w3.org/2000/svg">
  <g transform="matrix(1 0 0 1 -425 -272 )">
    <path d="M 432 272  C 435.92 272  439 275.08  439 279  C 439 282.92  435.92 286  432 286  C 428.08 286  425 282.92  425 279  C 425 275.08  428.08 272  432 272  Z " fill-rule="nonzero" fill="#ffffff" stroke="none" fill-opacity="0" />
    <path d="M 432 272.5  C 435.64 272.5  438.5 275.36  438.5 279  C 438.5 282.64  435.64 285.5  432 285.5  C 428.36 285.5  425.5 282.64  425.5 279  C 425.5 275.36  428.36 272.5  432 272.5  Z " stroke-width="1" stroke="#d9d9d9" fill="none" />
  </g>
</svg>